<svg width="299" height="213" viewBox="0 0 299 213" fill="none" xmlns="http://www.w3.org/2000/svg">
<path d="M123.024 49.1389C120.475 48.8084 97.8446 48.8084 93.7843 49.1389C93.7147 49.1541 93.6534 49.1949 93.6126 49.2532C93.5718 49.3115 93.5544 49.3831 93.564 49.4536C93.5784 49.5063 93.6063 49.5543 93.645 49.593C93.6836 49.6316 93.7316 49.6595 93.7843 49.674C97.4354 49.9887 120.428 50.1303 122.946 49.7999C123.308 49.7684 123.418 49.1861 123.024 49.1389ZM229.331 88.5139C229.016 88.5139 224.972 89.946 226.042 90.5283L227.175 91.4726C226.923 92.0391 229.394 94.62 227.694 100.695C226.986 100.207 226.97 100.695 227.065 100.852C229.693 103.559 248.467 118.588 252.654 121.311C253.031 121.862 255.423 120.681 255.801 120.555C264.116 117.01 272.233 113.018 280.115 108.595C282.995 107.021 282.964 101.371 279.47 99.1524C275.795 96.7086 271.969 94.5009 268.013 92.5427L272.892 88.7185C273.238 88.451 273.049 87.4595 271.727 88.5297C268.881 83.93 267.729 78.481 268.47 73.1227C268.659 73.0126 270.767 71.7536 269.839 71.3444C265.118 69.3772 249.475 63.6331 244.659 63.334C243.085 63.2239 230.495 73.2958 229.315 75.326C226.797 79.5278 227.568 84.3278 229.409 88.5611L229.331 88.5139ZM228.072 100.931C229.646 99.2154 229.158 94.5099 228.402 92.4325C230.558 94.1637 247.885 107.226 253.393 110.719C256.368 117.014 253.047 120.067 253.157 120.54C243.935 114.134 236.428 106.817 228.072 100.931ZM279.36 100.223C281.988 101.576 281.39 107.21 279.502 107.871C270.941 112.451 262.474 116.574 253.629 120.461C254.791 118.894 255.425 116.998 255.439 115.047L267.557 110.074C267.777 109.964 267.557 109.665 267.384 109.712C263.315 111.072 259.332 112.675 255.455 114.512C255.424 112.983 254.949 111.495 254.086 110.232C257.784 108.768 276.685 98.9636 279.36 100.223ZM253.126 84.2333C257.756 80.3994 262.6 76.8318 267.636 73.5476C267.268 75.4612 267.199 77.4201 267.431 79.3547C266.66 79.6065 257.123 86.594 256.635 86.9717C256.431 87.129 256.635 87.4595 256.887 87.3336L267.541 80.0944C267.872 82.3134 269.209 87.3651 271.271 88.7343C269.178 90.4339 258.823 98.6331 256.305 98.6331C254.417 96.8119 253.11 94.4725 252.55 91.9099C251.99 89.3472 252.201 86.6761 253.157 84.2333H253.126ZM251.064 70.6519C252.166 71.5962 247.602 74.2558 247.429 74.303C246.909 74.4604 246.563 73.9253 247.681 72.8552C248.247 72.3673 250.324 70.0697 251.064 70.6677V70.6519ZM242.487 73.2801C243.274 71.7064 246.548 69.0939 247.932 68.1497C248.001 68.1022 248.077 68.0685 248.159 68.0507C248.24 68.0329 248.324 68.0312 248.406 68.0459C248.487 68.0605 248.566 68.0911 248.636 68.1359C248.706 68.1807 248.766 68.2389 248.814 68.3071C248.861 68.3753 248.895 68.4522 248.913 68.5334C248.931 68.6146 248.932 68.6985 248.918 68.7803C248.903 68.8621 248.872 68.9403 248.828 69.0103C248.783 69.0803 248.725 69.1408 248.656 69.1884C247.429 70.1326 244.092 73.2644 243.164 73.9096C243.094 73.9482 243.016 73.9684 242.936 73.9684C242.856 73.9684 242.777 73.9482 242.708 73.9096C242.652 73.8843 242.603 73.8482 242.562 73.8034C242.521 73.7587 242.489 73.7062 242.468 73.649C242.448 73.5919 242.439 73.5312 242.442 73.4705C242.445 73.4099 242.461 73.3505 242.487 73.2958V73.2801ZM230.936 76.0027C237.687 77.8346 244.32 80.0788 250.797 82.7226C251.206 82.9271 251.064 83.6196 250.576 83.5252C243.829 81.6452 237.202 79.3591 230.731 76.6794C230.659 76.6391 230.603 76.5754 230.573 76.499C230.542 76.4225 230.538 76.3378 230.562 76.2588C230.586 76.1799 230.636 76.1115 230.704 76.0649C230.772 76.0183 230.854 75.9963 230.936 76.0027ZM229.771 89.2693C237.278 93.5027 251.253 98.8849 256.525 99.6718C257.579 99.8291 266.141 93.8174 267.541 92.7945C268.454 93.6915 276.055 97.9879 277.991 99.1839C275.19 99.3255 254.857 108.799 253.393 109.728C244.659 103.197 235.594 96.5715 226.64 90.3552L229.787 89.2693H229.771ZM123.024 49.1389H123.04H123.024ZM148.582 19.1433C148.486 19.104 148.379 19.104 148.283 19.1433C147.355 19.7099 141.988 27.0121 140.902 28.3812C139.863 26.9648 138.809 25.5642 137.755 24.1951C137.55 23.9433 137.125 24.1951 137.283 24.5255C138.337 26.2095 139.47 27.8304 140.619 29.4514C140.808 29.7032 141.17 29.5773 141.327 29.3727C142.319 28.1137 148.629 20.4968 148.897 19.6312C148.908 19.5785 148.909 19.524 148.9 19.4709C148.89 19.4178 148.87 19.3671 148.841 19.3218C148.812 19.2764 148.774 19.2373 148.729 19.2067C148.685 19.1761 148.635 19.1545 148.582 19.1433ZM118.571 52.1919C109.128 52.3808 98.6629 52.1919 94.6026 52.5382C94.5192 52.5382 94.4391 52.5713 94.3801 52.6304C94.3211 52.6894 94.2879 52.7694 94.2879 52.8529C94.2879 52.9364 94.3211 53.0165 94.3801 53.0755C94.4391 53.1345 94.5192 53.1677 94.6026 53.1677C99.4812 53.1677 114.668 53.6713 118.571 52.8372C118.901 52.7585 118.838 52.2864 118.571 52.1919ZM118.917 36.3758C119.232 36.3758 119.326 35.8408 118.917 35.7935C115.769 35.3214 96.8846 36.2499 92.305 36.9581C92.2215 36.9581 92.1414 36.9913 92.0824 37.0503C92.0234 37.1093 91.9902 37.1894 91.9902 37.2729C91.9902 37.3563 92.0234 37.4364 92.0824 37.4954C92.1414 37.5544 92.2215 37.5876 92.305 37.5876C98.4741 37.5876 112.496 36.6276 118.838 36.4073L118.917 36.3758ZM112.653 39.5233C112.921 39.5233 113.063 38.9882 112.653 38.8938C111.08 38.5004 95.3423 38.8938 92.966 39.1614C92.9285 39.1671 92.8926 39.1802 92.8604 39.2C92.8281 39.2198 92.8001 39.2459 92.7781 39.2767C92.7561 39.3076 92.7405 39.3425 92.7322 39.3794C92.7239 39.4164 92.7231 39.4546 92.7299 39.4918C92.7384 39.5531 92.7657 39.6101 92.8079 39.6552C92.8502 39.7003 92.9054 39.7312 92.966 39.7436C96.0033 39.9167 110.796 40.0269 112.653 39.5233ZM146.206 48.1789C147.071 46.9199 137.582 47.3763 137.172 47.8012C136.763 48.2261 137.172 54.6942 137.172 55.2922C137.172 56.2207 145.97 56.205 146.316 55.9374C146.708 53.3767 146.708 50.7711 146.316 48.2104L146.206 48.1789ZM145.529 55.2293C144.695 55.2293 138.51 55.3394 138.006 54.946C138.006 52.727 137.865 50.5238 137.786 48.3205H145.655C145.372 50.6127 145.329 52.9283 145.529 55.2293Z" fill="black"/>
<path d="M257.155 91.9132C259.358 90.607 261.608 89.3323 263.733 87.9159C264.032 87.7113 263.733 87.1762 263.387 87.3651L256.919 91.5513C256.882 91.5869 256.859 91.6341 256.854 91.6847C256.848 91.7354 256.86 91.7864 256.888 91.829C256.916 91.8717 256.958 91.9034 257.006 91.9188C257.055 91.9341 257.107 91.9322 257.155 91.9132ZM241.291 109.193C241.102 109.067 240.851 109.366 241.039 109.523C242.613 110.893 250.356 116.306 252.056 117.502C252.276 117.66 252.465 117.298 252.26 117.14C248.955 114.622 244.801 111.302 241.291 109.193ZM139.344 42.7023C140.163 42.7023 146.568 43.4419 146.505 42.3875C146.442 41.3331 146.347 35.2742 145.938 35.0854C145.828 34.031 137.849 34.8021 137.109 34.9437C136.653 34.9437 136.842 41.0813 136.873 41.821C136.921 42.8911 138.636 42.6708 139.344 42.7023ZM145.529 35.4473V42.0728C142.878 41.8 140.21 41.7474 137.55 41.9154C137.654 39.759 137.612 37.598 137.424 35.4473C138.73 35.4473 144.695 35.6519 145.529 35.4473ZM251.709 114.481C251.749 114.514 251.799 114.532 251.851 114.532C251.903 114.532 251.953 114.514 251.993 114.481C252.024 114.446 252.041 114.401 252.041 114.355C252.041 114.308 252.024 114.264 251.993 114.229C244.785 109.114 237.624 102.961 230.543 98.161C230.338 98.0036 230.023 98.3026 230.228 98.5072C234.194 102.284 246.579 111.097 251.772 114.559L251.709 114.481ZM271.869 105.447H271.901H271.869ZM146.473 24.7301C146.451 24.6598 146.403 24.6008 146.338 24.5656C146.274 24.5303 146.198 24.5216 146.127 24.5413C146.08 24.5525 146.036 24.5758 146 24.6088C145.964 24.6419 145.937 24.6837 145.922 24.7301V30.2382H137.204C137.051 27.702 136.768 25.1754 136.354 22.6685C138.816 22.7829 141.282 22.7198 143.735 22.4797C143.79 22.4619 143.838 22.4255 143.869 22.3768C143.901 22.328 143.914 22.2699 143.908 22.2121C143.899 22.1787 143.883 22.1474 143.862 22.1203C143.84 22.0932 143.813 22.0709 143.782 22.0548C143.2 21.8659 135.913 21.2364 136.134 22.4954C135.41 22.4954 136.464 30.3641 136.464 30.3641C136.842 31.3241 138.431 30.9936 139.265 30.9936C140.1 30.9936 145.891 31.1353 146.363 30.9936C147.118 30.6946 146.694 25.6586 146.52 24.6987L146.473 24.7301Z" fill="black"/>
<path d="M298.544 167.5C278.494 168.728 258.44 169.777 238.38 170.647C238.118 167.778 237.591 164.938 236.806 162.165C256.74 161.64 276.674 161.027 296.608 160.324C296.71 160.311 296.805 160.266 296.879 160.195C296.952 160.124 297.001 160.031 297.017 159.93C297.031 159.807 296.995 159.684 296.919 159.587C296.842 159.49 296.731 159.427 296.608 159.411C276.59 160.156 256.577 160.77 236.57 161.252C231.849 144.791 221.887 129.132 210.273 116.731C209.911 112.545 209.895 110.436 208.101 106.234C204.639 98.2868 200.814 96.6344 200.909 98.5229C200.908 99.0203 200.988 99.5146 201.145 99.9865C200.515 99.1996 195.889 94.3839 194.944 96.9806C194.248 96.5426 193.462 96.267 192.645 96.1744C191.828 96.0818 191 96.1744 190.223 96.4455C187.28 91.7243 182.355 91.7243 179.207 90.1506C173.195 87.0031 175.965 76.9626 180.387 73.2171C180.387 73.2171 199.382 72.8551 199.398 72.6191C199.744 68.1654 203.537 0.384268 203.537 0.384268C156.734 -0.54424 106.374 0.384265 59.9173 1.32851C59.6026 1.32851 59.335 1.5331 59.3665 1.81637C62.1678 25.6586 69.045 74.4603 69.045 74.4603C70.1781 74.9167 173.054 73.3115 179.207 73.2171C176.576 76.0874 175.135 79.8516 175.178 83.7454C175.493 93.66 183.377 89.4424 189.83 96.6973C185.644 98.4914 185.109 103.795 186.682 107.588C186.968 108.315 187.355 108.998 187.831 109.618C187.897 111.097 188.318 112.538 189.059 113.82C191.073 117.644 194.661 118.966 194.85 119.532C194.85 128.44 196.723 139.299 198.501 147.986C192.505 144.838 174.722 137.331 156.435 136.796C157.474 127.779 165.264 126.646 164.194 120.618C167.451 120.492 170.709 120.366 173.966 120.209C174.785 120.209 173.888 117.691 173.793 117.266C172.471 111.443 171.144 105.631 169.812 99.8291C169.607 99.0422 168.694 93.7544 167.923 93.7544L157.773 93.9433C155.538 91.8187 150.297 91.0318 148.157 93.5026C145.01 87.4437 135.284 88.325 134.969 94.2108C132.309 92.401 128.359 92.039 125.952 94.4941C125.7 94.6042 78.094 95.2495 71.0122 95.5328H70.8863C70.8098 95.5814 70.7554 95.658 70.7348 95.7463C70.7142 95.8346 70.729 95.9274 70.7761 96.0049C70.902 96.8232 66.7946 116.243 66.3067 120.917C66.3067 121.578 73.4358 121.484 74.1754 121.484C64.0091 133.397 54.8656 146.837 52.143 162.558C34.9892 162.291 17.8354 161.866 0.681651 161.929C0.598175 161.929 0.518117 161.962 0.45909 162.021C0.400063 162.08 0.366903 162.16 0.366903 162.244C0.366903 162.327 0.400063 162.407 0.45909 162.466C0.518117 162.525 0.598175 162.558 0.681651 162.558C17.7568 163.298 34.8791 163.377 51.9699 163.503C51.4608 166.623 51.25 169.785 51.3404 172.945C34.344 172.599 17.3476 172.064 0.366903 171.781C-0.0107955 171.781 -0.0737452 172.379 0.366903 172.379C17.3633 173.244 34.3912 173.559 51.4191 173.811C51.8598 182.356 55.2276 192.837 63.5999 196.677C67.0464 203.444 74.3485 209.535 82.4848 207.788C82.2487 209.015 82.0284 210.274 81.7923 211.533C81.6979 212.1 82.5477 212.336 82.6422 211.769C84.9556 199.305 87.3634 186.778 91.4079 174.755C91.5338 174.377 90.9673 174.236 90.8256 174.598C86.8913 185.047 84.6723 196.032 82.6264 206.969C74.3013 208.181 67.6601 202.878 64.2136 195.701C62.3594 191.91 61.2868 187.783 61.0597 183.568C60.8326 179.354 61.4556 175.136 62.8917 171.167C67.188 160.151 78.6291 152.282 89.8656 146.9C101.291 141.485 113.561 138.073 126.14 136.812C127.037 145.216 136.7 148.064 144.065 147.624C151.43 147.183 155.79 144.933 156.419 137.504C156.514 137.504 183 138.087 205.866 153.368C212.586 157.853 218.692 163.613 222.265 170.931C225.758 177.997 226.986 186.668 223.838 194.033C219.337 204.766 211.123 206.324 205.677 207.284C203.752 195.761 200.035 184.61 194.661 174.236C194.52 173.968 194.079 174.141 194.221 174.424C199.825 186.509 203.647 199.343 205.567 212.525C205.567 212.934 206.386 213.044 206.386 212.525C206.322 211.084 206.132 209.652 205.819 208.244C211.754 207.734 217.249 204.907 221.116 200.375C233.706 197.228 239.198 183.615 238.427 171.623C258.529 170.805 278.61 169.756 298.67 168.476C299.221 168.271 299.016 167.5 298.544 167.5ZM69.108 64.5143C65.9605 44.4963 63.4582 24.5727 60.6098 4.53895C107.822 3.7206 156.262 4.06683 202.829 3.27995L199.194 62.311C179.538 62.9091 71.6417 63.5228 69.108 64.5143ZM164.005 119.737C163.717 118.898 163.164 118.175 162.431 117.675C163.247 116.378 163.688 114.88 163.706 113.348H164.555L165.736 119.642L164.005 119.737ZM162.683 108.201C162.952 107.984 163.2 107.742 163.422 107.477C163.8 109.161 164.115 110.845 164.43 112.529H163.674C163.751 111.023 163.408 109.524 162.683 108.201ZM173.447 119.328L166.208 119.642C166.019 117.518 165.61 115.425 165.232 113.348C167.495 113.423 169.759 113.365 172.015 113.174C172.487 115.205 172.975 117.282 173.447 119.328ZM171.873 112.45H165.106L163.973 106.549L170.504 106.36L171.873 112.45ZM170.3 105.683L164.146 105.872C164.265 105.126 164.211 104.362 163.99 103.64C163.77 102.917 163.387 102.254 162.872 101.702C162.777 101.23 162.683 100.742 162.557 100.254L169.041 100.112L170.3 105.683ZM167.892 94.4469C168.238 96.0206 168.553 97.7045 168.868 99.3412L162.399 99.4514C162.069 97.7968 161.643 96.1626 161.125 94.557L167.892 94.4469ZM161.943 101.12C161.177 100.771 160.311 100.71 159.504 100.946C159.576 100.752 159.634 100.552 159.677 100.348H161.754L161.943 101.12ZM160.369 94.5728C160.664 96.225 161.053 97.8591 161.534 99.4671H159.787C159.967 97.7235 159.484 95.9761 158.434 94.5728H160.369ZM122.269 95.2495H125.306C124.665 96.241 124.439 97.4449 124.677 98.6015L122.001 99.3727C122.127 98.0193 122.269 96.5085 122.269 95.2495ZM121.419 95.2495V99.6402C121.153 99.7987 120.895 99.9721 120.648 100.16L113.204 100.285C113.273 98.6527 113.226 97.0171 113.063 95.3911L121.419 95.2495ZM118.114 106.659H113.157V101.151L119.609 101.041C118.927 101.788 118.435 102.689 118.174 103.667C117.914 104.645 117.894 105.671 118.114 106.659ZM113.189 113.946H117.485C117.546 115.319 118.054 116.634 118.933 117.691C118.413 118.05 117.996 118.537 117.72 119.105C117.444 119.673 117.32 120.303 117.359 120.933H113.11C113.157 118.572 113.189 116.259 113.189 113.946ZM117.91 112.041C117.772 112.37 117.671 112.713 117.611 113.064H113.267V107.383H118.35C118.692 108.322 119.306 109.139 120.113 109.728C119.13 110.237 118.335 111.048 117.847 112.041H117.91ZM112.638 120.917H93.139C93.3436 118.21 93.139 116.511 94.8859 114.182L112.465 113.977C112.449 116.29 112.496 118.604 112.575 120.917H112.638ZM95.5311 113.316C97.1687 111.66 98.4067 109.653 99.1507 107.446H103.085V113.222L95.5311 113.316ZM104.092 95.5642L112.339 95.4226C112.25 97.0528 112.25 98.6867 112.339 100.317L104.045 100.459C104.045 98.8376 104.061 97.2009 104.092 95.5642ZM103.982 101.324L112.307 101.182V106.691H103.872C103.872 104.897 103.872 103.118 103.982 101.324ZM103.872 107.43H112.386V113.111L103.526 113.222C103.652 111.286 103.746 109.413 103.872 107.43ZM96.0032 95.7059L103.541 95.58L103.368 100.474L95.6885 100.6C95.8754 98.9759 95.9333 97.3393 95.8616 95.7059H96.0032ZM95.6255 101.45L103.353 101.324L103.211 106.675H99.3553C99.5442 105.809 99.8904 104.393 98.8675 103.921C97.8445 103.449 96.8688 105.809 94.9803 106.659C95.1534 104.928 95.3108 103.197 95.4839 101.466L95.6255 101.45ZM88.8899 95.8318L95.3895 95.7216C95.1646 97.3448 95.0228 98.9783 94.9646 100.616H94.4295C95.1062 98.9635 91.4551 97.8934 88.3076 100.616C88.3549 99.8133 88.7955 96.3668 88.7483 95.8318H88.8899ZM94.76 101.544C94.6498 103.26 94.5554 104.959 94.4452 106.675H91.9902C91.5181 105.29 91.9902 102.032 93.2492 101.544H94.7285H94.76ZM87.9457 95.879L87.6939 100.758H84.751C83.5864 98.334 84.3261 96.4927 83.1772 95.9104L87.9457 95.879ZM87.3162 101.639C86.9534 102.093 86.6469 102.59 86.4034 103.118L85.2388 101.686L87.3162 101.639ZM77.26 96.0836L82.3117 95.9891C80.7379 96.7445 80.5019 99.4199 80.5019 100.883H78.1255C77.3229 100.191 76.9767 100.883 76.3787 100.883L77.2285 95.9891L77.26 96.0836ZM80.7537 104.078C79.8804 103.496 79.1707 102.699 78.6921 101.765H80.4704C80.4892 102.54 80.5628 103.313 80.6907 104.078H80.7537ZM75.5446 106.439L76.3 101.812C76.1422 103.409 76.3411 105.022 76.8823 106.533L75.5446 106.439ZM77.1183 107.21C77.7636 109.366 78.6921 111.333 79.1327 113.505L74.4115 113.599L75.3557 107.194L77.1183 107.21ZM71.4056 96.0993H76.5675C76.2685 97.673 75.9852 99.3727 75.702 101.025C73.9866 101.025 72.2555 101.12 70.5401 101.198C70.9107 99.5164 71.1787 97.8136 71.3427 96.0993H71.4056ZM70.4299 101.843H75.5446C75.3085 103.417 75.0567 104.991 74.8049 106.455H69.5329C69.8004 104.881 70.0837 103.354 70.367 101.843H70.4299ZM69.4699 107.005C71.2011 107.1 72.9322 107.147 74.6633 107.178C74.3643 109.303 74.0181 111.459 73.7348 113.599C71.8935 113.599 70.0522 113.725 68.2109 113.804C68.6359 111.538 69.045 109.272 69.4699 107.005ZM73.0109 120.65H66.9362C67.3297 118.541 67.7388 116.448 68.1637 114.355L73.6246 114.496C73.2926 116.534 73.0668 118.588 72.9479 120.65H73.0109ZM73.4515 120.65L74.38 114.355H79.2744C79.3215 114.773 79.3215 115.195 79.2744 115.614L74.8521 120.665L73.4515 120.65ZM62.7343 169.011C60.8936 173.205 59.9734 177.745 60.0359 182.325C60.0983 186.904 61.1419 191.418 63.0963 195.56C47.8625 185.268 51.1044 162.511 57.5882 147.97C62.8917 136.057 71.2955 125.937 79.9039 116.227C81.1628 114.795 77.0869 105.211 76.9452 102.866C76.8508 101.12 77.5747 100.758 78.2199 102.001C78.8652 103.244 79.7937 104.66 81.0684 104.959C81.572 106.439 81.9655 105.967 81.9025 105.731C81.3674 103.134 80.4389 99.4356 82.17 97.0435C83.429 95.3754 83.3818 98.4442 83.5077 99.0422C83.8067 100.474 85.0815 103.244 86.2303 103.763C85.8369 104.881 86.4978 104.487 86.5451 104.346C88.7798 98.4756 95.6098 99.3097 93.4066 100.758C92.8256 101.104 92.332 101.58 91.9637 102.147C91.5954 102.715 91.3622 103.359 91.282 104.031C90.4794 109.586 94.8544 108.752 98.0334 104.881C99.3553 103.307 99.4183 106.691 97.3252 110.106C95.5469 113.001 93.139 114.04 92.8558 117.833C92.0689 127.102 90.1647 138.165 88.8899 146.317C78.4403 151.369 67.7546 158.199 62.6714 169.027L62.7343 169.011ZM89.7083 145.893C91.2449 137.89 92.3429 129.81 92.9974 121.688H117.406C118.319 126.96 124.866 127.669 125.92 135.852C113.36 137.08 101.108 140.477 89.7083 145.893ZM156.152 133.192C155.76 134.43 155.507 135.707 155.396 137.001C154.767 143.674 151.934 145.893 144.522 146.443C136.653 147.089 128.123 144.602 126.927 136.12C125.873 128.566 123.449 129.227 119.562 123.939C118.398 122.365 117.359 119.438 119.562 118.21C120.645 119.399 122 120.307 123.512 120.854C126.912 128.487 128.06 137.284 137.943 138.26C157.049 140.038 152.768 129.636 158.827 120.555C160.005 120.011 161.072 119.253 161.975 118.321C162.662 118.895 163.136 119.683 163.321 120.559C163.507 121.435 163.393 122.348 162.997 123.152C161.455 126.882 157.741 128.298 156.152 133.192ZM195.149 97.8934C195.684 99.0894 196.235 100.27 196.723 101.466C195.952 100.474 192.175 96.3511 190.916 98.5543C190.27 99.7032 191.624 101.419 192.175 102.441C190.062 102.815 188.175 103.987 186.903 105.715C184.888 98.397 192.002 94.7459 195.149 97.8934ZM188.036 108.611C187.737 107.871 187.422 107.115 187.107 106.376C188.488 104.759 190.344 103.619 192.411 103.118C193.296 104.946 193.87 106.909 194.11 108.925C194.535 112.954 191.451 110.074 189.956 108.689C189.373 108.091 188.398 107.839 187.957 108.611H188.036ZM222.107 198.959C227.316 191.657 227.537 182.23 224.515 173.984C220.234 162.322 210.052 154.155 199.335 148.442C197.275 138.926 195.938 129.267 195.338 119.548C195.338 118.069 190.333 117.062 188.775 111.254C188.492 110.2 187.91 107.43 189.814 109.413C191.718 111.396 194.96 113.222 194.819 108.878C194.63 103.732 191.136 100.301 191.451 99.1366C191.844 97.673 194.756 100.427 195.228 100.899C196.458 102.253 197.574 103.705 198.564 105.243C198.737 105.495 199.162 105.243 199.005 105.007C198.637 104.377 198.26 103.748 197.872 103.118C198.123 102.583 195.291 97.5786 195.794 97.1065C196.298 96.6344 198.564 98.2711 199.068 98.6802C201.696 100.962 201.822 102.489 202.719 103.669C202.759 103.683 202.804 103.683 202.845 103.669C202.901 103.674 202.956 103.657 203 103.621C203.044 103.586 203.073 103.536 203.081 103.48C202.986 102.473 202.404 101.906 202.121 101.214C201.837 100.522 201.255 98.9635 201.649 98.4127C201.837 98.2553 202.923 99.0579 203.049 99.1838C204.087 100.178 204.954 101.337 205.614 102.615C210.43 110.845 208.982 116.149 209.801 116.951C221.745 130.407 234.508 150.11 237.089 167.893C238.836 180.232 234.949 194.616 222.029 198.959H222.107Z" fill="black"/>
<path d="M107.963 27.5787C108.325 27.4685 108.184 26.9492 107.853 26.9019C102.125 27.0121 96.0345 26.9019 90.3847 27.0593C89.9441 27.0593 90.007 27.736 90.3847 27.799C93.2804 28.2711 105.445 28.3498 107.963 27.5787ZM258.209 111.742C260.349 110.814 270.799 106.596 272.042 105.888C272.065 105.867 272.084 105.842 272.097 105.813C272.11 105.785 272.116 105.754 272.116 105.723C272.116 105.692 272.11 105.661 272.097 105.632C272.084 105.604 272.065 105.578 272.042 105.558C272.016 105.519 271.981 105.489 271.939 105.47C271.898 105.45 271.851 105.443 271.806 105.447C269.162 105.998 260.601 110.074 257.941 111.396C257.799 111.506 257.988 111.837 258.209 111.742ZM152.658 74.7909L119.294 75.2945C120.727 91.4726 153.083 91.7244 152.658 74.7909ZM152.658 40.1686C152.658 40.2369 152.684 40.3027 152.73 40.3524C152.777 40.4022 152.841 40.4321 152.91 40.4361C158.245 40.562 169.528 40.8925 173.793 40.3102C174.139 40.3102 174.029 39.728 173.793 39.728C167.766 39.728 159.063 39.728 152.988 39.9011C152.948 39.8914 152.907 39.891 152.866 39.9C152.826 39.9091 152.789 39.9272 152.757 39.9531C152.725 39.979 152.699 40.0119 152.682 40.0493C152.665 40.0866 152.657 40.1275 152.658 40.1686ZM107.019 16.5625C107.46 16.5625 107.271 15.933 106.909 15.87C96.066 16.1848 84.2629 16.4208 73.6873 16.6569C73.652 16.6626 73.6181 16.6753 73.5877 16.6943C73.5573 16.7133 73.5311 16.7383 73.5105 16.7676C73.49 16.797 73.4756 16.8302 73.4681 16.8652C73.4606 16.9002 73.4602 16.9364 73.467 16.9716C73.4761 17.0268 73.5023 17.0777 73.5418 17.1172C73.5813 17.1567 73.6322 17.1828 73.6873 17.192C81.3829 17.7428 97.0259 16.9087 107.019 16.5625ZM113.078 12.9586C113.44 12.9586 113.55 12.3291 113.078 12.2819C109.553 11.857 74.789 12.4235 72.3654 12.9586C72.1293 12.9586 72.1451 13.4307 72.3654 13.4307C81.2885 13.415 102.676 12.8012 113.078 12.9586ZM44.6675 125.371V125.355V125.371ZM45.3285 125.639C46.5409 123.396 47.4713 121.012 48.0983 118.541C48.3913 117.692 48.4583 116.781 48.2928 115.898C48.1272 115.015 47.7348 114.19 47.154 113.505C47.7252 112.068 48.0189 110.535 48.0196 108.988C47.7048 106.423 44.9823 106.581 43.5187 108.548C37.6172 116.416 31.1019 129.006 31.2907 138.685C31.1805 139.141 31.4166 139.661 31.8258 139.283C38.8127 132.361 43.9809 123.819 46.8708 114.418C48.8379 117.345 45.8006 122.397 44.6675 125.355C44.5259 125.749 45.1239 125.985 45.3285 125.639ZM31.8887 138.04C32.0042 136.293 32.2461 134.558 32.6126 132.846L35.0362 134.593C34.0133 135.726 32.9589 136.907 31.8887 138.04ZM46.5088 112.86C45.4431 111.965 44.1632 111.363 42.7948 111.113C43.3206 110.152 43.9542 109.255 44.6833 108.438C45.3914 107.777 46.7449 107.509 47.154 108.626C47.2929 110.059 47.0711 111.503 46.5088 112.828V112.86ZM86.5605 32.6933C85.8681 32.9766 81.8393 38.9883 81.0997 40.0427C80.184 38.826 79.1275 37.7219 77.9522 36.7536C77.8865 36.7231 77.8121 36.7175 77.7427 36.7378C77.6732 36.758 77.6135 36.8028 77.5745 36.8637C77.5515 36.9246 77.5515 36.9917 77.5745 37.0526C78.4719 38.522 79.5273 39.8888 80.722 41.1286C80.7647 41.1758 80.817 41.2136 80.8752 41.2395C80.9335 41.2653 80.9966 41.2787 81.0603 41.2787C81.1241 41.2787 81.1871 41.2653 81.2454 41.2395C81.3037 41.2136 81.3559 41.1758 81.3987 41.1286V41.0499L86.5605 33.9995C87.2845 32.9766 87.0799 32.4258 86.5605 32.6933ZM180.985 24.4312C181.316 24.4312 181.379 23.8017 180.985 23.7545C171.166 23.2661 161.326 23.4081 151.525 24.1794C151.194 24.1794 151.226 24.7617 151.525 24.7459C158.953 24.683 172.88 24.919 180.985 24.4312Z" fill="black"/>
<path d="M86.5607 42.2301C87.1902 41.9783 85.9313 37.2885 85.7581 36.5489C85.753 36.5158 85.7413 36.4841 85.7239 36.4555C85.7065 36.4269 85.6836 36.4021 85.6566 36.3823C85.6295 36.3626 85.5989 36.3484 85.5663 36.3405C85.5338 36.3326 85.5001 36.3312 85.467 36.3364C85.4339 36.3416 85.4022 36.3532 85.3736 36.3706C85.3451 36.3881 85.3202 36.4109 85.3005 36.438C85.2807 36.465 85.2665 36.4957 85.2586 36.5282C85.2508 36.5607 85.2494 36.5945 85.2545 36.6275C85.4434 38.3114 85.6322 40.0111 85.947 41.6635C83.3188 41.8681 80.9425 41.8524 78.3773 41.9625C77.9052 39.9167 77.496 37.2413 76.8035 35.2112C78.783 35.3776 80.7729 35.3776 82.7523 35.2112C84.0585 35.2112 83.9641 34.3928 82.8467 34.4086C82.1857 34.4086 76.5517 34.2984 76.5517 34.9751C75.8121 34.9751 77.3701 41.5691 77.4645 42.0097C77.4808 42.0882 77.5215 42.1594 77.581 42.2132C77.6404 42.2669 77.7153 42.3004 77.795 42.3088C77.9838 43.1271 86.2617 43.0012 86.5607 42.2301ZM181.867 36.7062C181.853 36.6451 181.819 36.5903 181.77 36.5504C181.722 36.5105 181.662 36.4878 181.599 36.4859C172.062 36.2341 161.864 36.6905 152.202 36.6748C151.918 36.6748 151.903 37.1469 152.202 37.1784C160.668 37.7449 173.762 38.0911 181.662 37.0525C181.733 37.0305 181.793 36.9829 181.831 36.9189C181.869 36.8549 181.882 36.779 181.867 36.7062ZM78.0153 30.8519C80.2229 30.9135 82.432 30.8135 84.625 30.5529C85.9942 30.8991 83.9011 22.3065 83.6493 21.9131C83.6162 21.8389 83.56 21.7774 83.4891 21.7377C83.4182 21.698 83.3364 21.6823 83.2559 21.6927C81.8395 21.6927 75.2613 21.6927 74.3328 21.8973C73.1997 20.9845 74.8521 28.7431 75.0882 29.6716C75.5445 31.2296 76.5517 30.8519 78.0153 30.8519ZM74.5216 22.4324C77.4254 22.787 80.3588 22.8292 83.2716 22.5583L84.2788 29.829L76.0324 30.2539C76.0954 29.7188 74.7105 23.4711 74.5216 22.4324ZM174.407 27.7359C174.491 27.7359 174.571 27.7027 174.63 27.6437C174.689 27.5847 174.722 27.5046 174.722 27.4212C174.722 27.3377 174.689 27.2576 174.63 27.1986C174.571 27.1396 174.491 27.1064 174.407 27.1064C172.456 26.713 155.68 27.311 152.202 27.61C151.934 27.61 151.934 28.0664 152.202 28.0821C154.09 28.1608 172.534 28.208 174.407 27.7359ZM42.2599 77.655C42.5589 77.655 44.7779 76.396 45.2972 78.4419C46.0211 81.2431 48.8539 79.5592 49.3103 77.419C49.8925 74.7751 47.3746 72.6977 44.4002 72.6977C38.357 72.6977 39.7419 77.9383 42.2599 77.655ZM44.4002 73.3115C47.7995 73.4216 49.8925 76.6321 47.8309 78.5206C46.0683 80.0943 46.2572 77.8281 45.4074 76.9468C43.7077 75.3731 42.3543 77.2773 41.3943 76.4747C39.4272 74.901 43.1884 73.2171 44.4002 73.3115ZM81.2572 47.6752C78.7865 47.6752 78.692 47.266 79.0068 49.6739C79.1012 50.3506 79.5891 55.1348 80.4074 55.182C80.5805 55.9374 87.6466 55.6698 88.5437 55.4023C89.7554 55.4023 88.5437 51.6725 88.5437 51.2476C87.505 45.771 88.7955 47.4706 81.2572 47.6752ZM80.8008 54.82C80.4074 52.8371 80.1084 50.2089 79.5419 48.3205C82.1186 48.5723 84.7175 48.477 87.2689 48.0372C87.4291 50.2283 87.7712 52.4023 88.2919 54.5367C85.8368 54.6469 83.2874 54.7728 80.8008 54.82ZM184.337 12.0299C181.442 11.7624 139.738 12.0299 134.45 12.4391C134.381 12.4507 134.32 12.4884 134.279 12.5442C134.238 12.5999 134.22 12.6695 134.229 12.7381C134.241 12.7924 134.267 12.8421 134.307 12.8813C134.346 12.9205 134.395 12.9473 134.45 12.9585C138.935 13.1945 181.127 13.0844 184.337 12.7224C184.429 12.7224 184.517 12.6859 184.582 12.621C184.647 12.5561 184.684 12.468 184.684 12.3762C184.684 12.2843 184.647 12.1963 184.582 12.1314C184.517 12.0664 184.429 12.0299 184.337 12.0299ZM113.314 23.597C113.676 23.5183 113.55 23.0304 113.236 22.9675L89.3305 23.5655C89.2958 23.5692 89.2622 23.5801 89.2319 23.5975C89.2016 23.6149 89.1753 23.6384 89.1546 23.6665C89.1338 23.6946 89.1192 23.7267 89.1115 23.7608C89.1039 23.7949 89.1035 23.8302 89.1102 23.8645C89.1193 23.9196 89.1455 23.9705 89.185 24.01C89.2245 24.0496 89.2754 24.0757 89.3305 24.0848C95.3265 24.5255 108.105 24.6514 113.314 23.597ZM208.101 67.8349C208.211 69.0309 209.407 80.9599 209.848 81.8254C212.995 87.963 224.578 88.1204 224.83 79.0399C225.27 75.2629 226.797 64.4198 226.199 61.7287C226.372 60.8474 227.285 57.0075 227.458 54.9774C227.458 54.6469 228.087 45.6608 226.828 47.03C225.148 49.2672 223.658 51.6414 222.375 54.1276C222.154 55.0876 221.934 56.0318 221.698 56.976C221.002 56.7135 220.279 56.5288 219.542 56.4252C219.542 55.78 219.07 52.6325 218.85 51.3735C217.764 49.2647 216.646 47.3762 215.702 45.1887C214.364 41.8996 214.333 41.8366 213.955 45.4562C213.325 49.1435 213.325 52.9111 213.955 56.5983C206.826 58.0777 207.566 62.2796 208.085 67.8349H208.101ZM225.318 50.5237C225.51 50.7099 225.741 50.8526 225.993 50.9422C226.246 51.0318 226.514 51.0662 226.781 51.043V55.0089C226.118 55.0732 225.449 55.0032 224.813 54.8032C224.178 54.6031 223.589 54.2769 223.083 53.8443C223.854 52.7584 224.657 51.6411 225.318 50.5237ZM223.051 54.6626C224.094 55.4038 225.345 55.795 226.624 55.78C226.105 58.7072 225.585 61.6186 225.176 64.5615C224.641 66.4814 222.029 67.1739 220.329 67.41C221.368 63.2553 222.154 58.7858 223.051 54.6154V54.6626ZM219.904 66.2769C219.827 66.672 219.775 67.0714 219.747 67.4729L215.907 67.5673L214.333 52.7427C215.045 52.9575 215.798 52.9953 216.527 52.8526C217.257 52.71 217.941 52.3913 218.519 51.9243C218.519 51.9243 219.542 66.0408 219.904 66.2296V66.2769ZM214.522 47.7067C214.763 47.7697 215.014 47.7826 215.261 47.7447C215.507 47.7068 215.743 47.6189 215.954 47.4864L218.11 51.3578C217.545 51.7789 216.89 52.0634 216.196 52.189C215.503 52.3146 214.79 52.2779 214.113 52.0817C214.085 50.597 214.223 49.1139 214.522 47.6595V47.7067ZM225.428 65.8362C225.145 69.802 224.641 78.1744 223.618 81.9199C221.808 86.7827 213.924 86.8614 210.446 81.9199C209.785 76.459 209.124 70.9037 208.479 65.5215C211.421 69.7863 222.863 69.267 225.428 65.789V65.8362Z" fill="black"/>
<path d="M13.8693 83.1789C16.2646 84.4298 18.7933 85.4064 21.4076 86.0903C16.3873 92.9991 30.7556 102.851 43.8964 97.5944C49.9238 95.1866 55.9512 87.5382 50.0497 82.2347C56.3447 77.1515 58.5636 69.8179 58.2961 61.776C57.8869 49.3749 52.4103 40.2472 39.8676 37.3043C33.6882 35.8583 27.2129 36.3585 21.3289 38.7364L18.8896 34.5188C19.6607 34.1096 20.4633 33.7162 21.2502 33.37C23.3275 32.6618 22.698 31.1353 21.4705 31.5916C-2.63921 40.3889 -8.21026 72.0998 13.8693 83.1789ZM21.5964 84.9887C21.1558 83.415 22.3361 81.8412 21.7853 80.1259C20.5263 76.0499 15.2542 78.4105 13.9166 75.6564C12.453 72.6506 16.3559 72.1313 17.1427 69.9752C17.2819 69.5978 17.3173 69.1899 17.2454 68.7941C17.1734 68.3983 16.9967 68.0291 16.7336 67.7248C14.4674 64.892 9.22681 67.8822 10.7219 61.2724C11.855 56.2837 16.6706 53.923 20.1643 56.1263C23.658 58.3295 25.7511 59.8088 30.1733 57.2279C37.5384 52.9001 36.6257 61.9491 34.3752 64.6875C33.1792 66.1668 31.0074 66.0881 29.3392 66.7176C23.8941 68.7634 23.9256 72.4303 28.2376 73.3273C29.9058 73.6735 32.0461 73.5161 33.3523 74.7751C36.8932 78.2216 29.5753 85.5867 27.2619 86.7985C26.0186 86.5467 22.2259 85.8071 21.5964 84.9887ZM41.5672 38.6892C50.8366 41.5692 55.7309 48.2733 57.0529 57.8574C57.6812 61.9936 57.5264 66.211 56.5965 70.29C56.2188 70.8093 50.8995 72.2729 49.1841 70.0696C48.5219 69.1792 48.0797 68.1446 47.8937 67.0506C47.7077 65.9565 47.7832 64.834 48.114 63.7747C49.1369 61.1308 52.6149 58.8017 51.5448 56.0948C50.0654 52.3493 45.7376 57.464 43.9121 56.4096C41.1738 54.8358 46.3042 51.8142 40.4499 50.7284C38.2938 50.3349 36.5312 51.2162 34.9418 48.8399C31.3064 43.3947 40.7646 38.6735 41.5672 38.642V38.6892ZM23.6108 45.6609C23.6787 45.7682 23.7816 45.8487 23.902 45.8888C24.0225 45.929 24.1531 45.9263 24.2718 45.8812C24.4081 45.8252 24.5172 45.7183 24.576 45.5831C24.6348 45.4479 24.6385 45.2952 24.5865 45.1573L21.7223 39.5705C27.5595 37.2299 33.986 36.7894 40.0879 38.3115C32.2192 40.9082 31.2907 49.7841 36.9404 51.3106C38.1365 51.6411 43.4872 51.169 42.5587 53.4509C42.3702 53.8211 42.2645 54.2279 42.249 54.643C42.2334 55.0581 42.3083 55.4716 42.4685 55.8549C42.6287 56.2382 42.8703 56.582 43.1767 56.8626C43.483 57.1432 43.8467 57.3537 44.2426 57.4797C46.4458 57.8731 48.8064 54.5525 50.4274 55.906C53.2601 58.2666 45.8635 61.9177 47.1225 67.174C48.0668 71.2027 49.7349 72.4775 53.8267 71.8952C54.723 71.8181 55.5923 71.5498 56.3761 71.1083C52.9926 82.9586 40.3397 88.4195 28.7727 86.9874C31.1018 84.8471 34.7214 80.598 35.0677 77.5449C35.6027 72.1312 29.3865 73.2171 27.1045 72.0211C23.957 70.4473 28.4579 67.709 31.3379 67.0795C32.2816 66.9242 33.195 66.6215 34.0447 66.1825C38.766 63.2868 37.4598 51.6411 30.614 55.9374C24.7597 59.6043 22.9498 56.4883 20.2273 55.0876C15.868 52.8686 9.88778 56.3624 9.58877 62.9563C9.41566 67.4415 13.114 66.4815 15.27 67.6776C15.6564 67.8225 15.979 68.0996 16.1806 68.4596C16.3823 68.8197 16.4499 69.2396 16.3716 69.6447C15.868 71.2185 13.5861 71.5332 12.9566 73.4375C12.7077 74.1802 12.7168 74.9852 12.9824 75.7221C13.248 76.459 13.7546 77.0846 14.4202 77.4977C16.4818 78.6938 20.1328 77.6551 20.9984 80.5036C21.4233 81.8885 20.5892 83.3048 20.6837 84.7055C16.6685 83.2623 13.1329 80.7326 10.4709 77.3982C7.80891 74.0638 6.12513 70.0557 5.6072 65.8205C4.19083 55.1191 10.7219 44.7167 20.3217 40.1685C21.3132 41.9941 22.5564 43.8826 23.6108 45.6609ZM9.44713 41.459C11.8096 39.0092 14.532 36.9342 17.5204 35.3057C18.3976 36.6514 19.2014 38.0436 19.9283 39.4761C14.9891 41.7707 10.8785 45.5338 8.15764 50.2516C5.43681 54.9694 4.23835 60.412 4.7259 65.8363C5.05397 68.9453 6.02846 71.9514 7.58682 74.6616C9.14518 77.3717 11.253 79.7262 13.7749 81.5737C-1.27006 73.2171 -1.89955 53.5139 9.44713 41.459ZM177.413 52.5539C176.059 52.2549 155.821 52.1605 152.957 52.5539C152.886 52.5539 152.818 52.5821 152.768 52.6323C152.717 52.6824 152.689 52.7505 152.689 52.8214C152.689 52.8924 152.717 52.9604 152.768 53.0106C152.818 53.0608 152.886 53.089 152.957 53.089C154.043 53.2463 175.194 53.6083 177.413 53.089C177.486 53.0727 177.552 53.0318 177.599 52.9731C177.646 52.9145 177.671 52.8415 177.671 52.7663C177.671 52.6912 177.646 52.6182 177.599 52.5596C177.552 52.5009 177.486 52.46 177.413 52.4437V52.5539ZM184.133 16.3578C168.946 16.5309 149.321 16.0116 135.63 16.3578C135.252 16.3578 135.284 16.8929 135.63 16.9244C141.374 17.5539 179.506 17.5066 184.133 16.9244C184.178 16.9205 184.221 16.9076 184.261 16.8862C184.301 16.8648 184.336 16.8356 184.364 16.8002C184.392 16.7648 184.412 16.724 184.424 16.6804C184.436 16.6368 184.438 16.5913 184.432 16.5467C184.406 16.4889 184.364 16.4399 184.311 16.4063C184.258 16.3726 184.196 16.3557 184.133 16.3578ZM182.449 49.1389C173.242 48.9343 161.738 49.5008 151.934 49.249C151.651 49.249 151.588 49.6582 151.934 49.6897C157.961 50.2877 176.83 50.8857 182.512 49.7841C182.811 49.7054 182.842 49.1389 182.449 49.1389Z" fill="black"/>
</svg>
