<svg width="269" height="224" viewBox="0 0 269 224" fill="none" xmlns="http://www.w3.org/2000/svg">
<path d="M179.224 128.507H179.139H179.224ZM61.4872 169.637C62.023 169.721 64.9559 169.862 64.9559 169.355C64.9559 169.059 64.4201 169.073 64.4201 169.073C64.4906 166.817 67.3529 166.253 69.3974 167.437C69.961 167.761 70.482 168.155 70.9484 168.607C68.0579 168.763 64.2227 170.737 64.4765 173.599C64.6222 174.345 64.9352 175.049 65.3918 175.657C65.8485 176.265 66.437 176.762 67.1132 177.11C67.9584 177.742 68.9211 178.2 69.9451 178.457C70.9691 178.714 72.034 178.764 73.0776 178.604C74.9362 178.131 76.5717 177.024 77.7024 175.474C80.2581 175.556 82.7587 174.72 84.7525 173.119C84.8367 173.053 84.9063 172.97 84.9572 172.875C85.0082 172.781 85.0392 172.677 85.0486 172.57C85.0486 172.076 85.0486 172.104 82.2286 168.974C82.1487 168.885 82.0487 168.816 81.9368 168.774C81.825 168.732 81.7046 168.717 81.5858 168.731C81.4669 168.744 81.3532 168.786 81.254 168.853C81.1549 168.92 81.0732 169.01 81.016 169.115C80.9673 169.177 80.9248 169.243 80.8891 169.312C80.6651 169.733 80.3031 170.064 79.8639 170.249C79.4247 170.433 78.9353 170.461 78.4779 170.328C77.0679 169.919 75.249 166.182 71.9354 163.954C69.0449 162.009 65.1674 161.43 62.4319 163.743C61.2546 164.754 60.4176 166.103 60.0349 167.606C59.8827 168.07 59.9129 168.574 60.1195 169.016C60.4899 169.375 60.9732 169.594 61.4872 169.637ZM66.7889 174.868C66.4023 174.592 66.134 174.18 66.0373 173.715C65.9406 173.25 66.0227 172.765 66.2672 172.358C66.8925 171.494 67.7615 170.836 68.7629 170.469C67.955 171.838 67.2934 173.289 66.7889 174.797V174.868ZM80.0713 172.64C80.4097 171.625 80.0713 171.977 80.6353 171.724C81.0626 171.511 81.4492 171.224 81.7774 170.878L83.0605 172.4C81.9979 173.074 80.8231 173.552 79.5918 173.81C79.7328 173.444 79.9585 172.88 80.0713 172.57V172.64ZM74.967 169.045C76.3065 170.722 77.4204 172.217 79.4649 172.048C79.1732 172.655 78.9373 173.287 78.7599 173.937C77.7306 174.008 77.5896 173.768 77.1807 173.937C76.377 174.248 75.0516 177.138 71.8367 177.124C72.0369 176.677 72.1653 176.201 72.2175 175.714C73.1271 175.53 73.9787 175.129 74.6991 174.544C75.0078 174.276 75.2084 173.905 75.2631 173.5C75.2631 173.007 75.0939 172.372 74.0505 171.54C74.4392 170.717 74.7462 169.857 74.967 168.974V169.045ZM70.2293 174.374C68.9885 173.712 71.1035 172.541 72.4713 172.584C72.7855 172.586 73.0927 172.677 73.3572 172.847C73.6217 173.017 73.8327 173.258 73.9659 173.542C73.7775 173.846 73.5292 174.107 73.2361 174.311C72.9431 174.515 72.6115 174.657 72.2617 174.728C71.9119 174.8 71.5512 174.799 71.2017 174.726C70.8522 174.653 70.5214 174.509 70.2293 174.304V174.374ZM71.8932 165.745C72.8506 166.559 73.7202 167.471 74.4876 168.466C74.0414 169.28 73.7003 170.147 73.4724 171.047C72.8798 170.877 72.2586 170.83 71.6474 170.91C71.0362 170.99 70.4479 171.195 69.9191 171.512C67.3388 172.922 67.9451 176.01 71.5265 175.658C71.3161 176.063 71.1596 176.494 71.0612 176.941C69.6314 176.656 68.2943 176.021 67.1696 175.094C68.1692 173.54 68.9474 171.856 69.482 170.088C70.0302 169.836 70.6232 169.696 71.2261 169.677C71.829 169.658 72.4298 169.759 72.993 169.975L73.2891 168.861L72.9789 168.72C72.3162 168.269 72.0201 167.917 71.2586 167.31C71.5412 166.795 71.7546 166.245 71.8932 165.675V165.745ZM66.4223 163.489C68.1868 163.521 69.8954 164.114 71.3009 165.181C71.0485 165.756 70.8594 166.356 70.7369 166.972C70.0611 166.441 69.2637 166.088 68.4169 165.942C67.5701 165.797 66.7005 165.865 65.8865 166.14C66.184 165.285 66.3642 164.393 66.4223 163.489ZM63.1933 164.589C63.975 163.981 64.9144 163.609 65.9006 163.517C65.4631 164.465 65.1912 165.481 65.0969 166.521C64.6768 166.773 64.3329 167.134 64.102 167.566C63.871 167.998 63.7617 168.485 63.7855 168.974C62.7976 169.029 61.809 168.88 60.8809 168.537C61.0907 166.971 61.9119 165.551 63.1651 164.589H63.1933ZM42.1277 162.234C39.5896 161.134 33.9496 164.391 32.9203 166.14C32.7714 166.526 32.7714 166.953 32.9203 167.338C33.8086 170.708 42.0995 182.609 43.6364 184.456C43.9043 184.794 44.2709 184.329 44.0312 183.934C43.298 182.722 43.3826 185.161 47.1332 173.021C47.4807 172.885 47.8043 172.694 48.092 172.457C48.2228 172.312 48.2952 172.123 48.2952 171.928C48.2952 171.733 48.2228 171.544 48.092 171.399C47.964 171.241 47.8173 171.099 47.6549 170.976L48.5433 167.691L52.0683 169.637C51.3554 171.419 50.8355 173.271 50.5173 175.164C49.0956 175.677 47.7634 176.409 46.5692 177.335C45.7373 178.252 47.0486 179.944 47.8664 180.959C48.6843 181.974 49.3752 182.665 49.5303 182.82C49.6854 182.976 50.1789 182.82 50.1366 182.567C50.047 182.363 49.9283 182.173 49.7841 182.003C49.02 180.813 48.3641 179.558 47.8241 178.252C48.92 177.596 50.077 177.049 51.2787 176.616C51.7158 176.461 53.0694 176.038 53.436 176.264C55.245 177.217 57.1318 178.014 59.0761 178.647C59.1546 178.684 59.2448 178.689 59.3268 178.66C59.4087 178.631 59.4758 178.57 59.5132 178.492C59.5506 178.413 59.5553 178.323 59.5262 178.241C59.4971 178.159 59.4366 178.092 59.3581 178.055L56.9188 176.574C57.4381 175.397 57.7711 174.145 57.9058 172.866L63.9265 176.123C64.2932 176.334 64.5752 175.756 64.3073 175.601C64.0393 175.446 45.7655 163.827 42.1277 162.234ZM39.9844 163.729C40.4765 163.581 41.0011 163.581 41.4932 163.729C41.8175 163.87 42.6071 164.293 43.6787 164.885C43.3172 165.883 43.0712 166.919 42.9455 167.973C42.0008 167.437 41.4368 167.028 40.6895 167.155C40.2821 167.246 39.9011 167.43 39.5755 167.691C39.7165 166.591 39.8434 165.745 39.9844 163.729ZM34.3444 166.831C35.8067 165.437 37.5808 164.412 39.5191 163.842C38.7666 167.168 38.239 170.54 37.9399 173.937C36.5181 171.685 35.3186 169.301 34.3585 166.817L34.3444 166.831ZM40.7459 178.689C39.9703 177.406 39.1243 175.982 38.3206 174.586C38.8 172.57 38.9551 171.639 39.2512 169.735C40.0227 171.074 40.9147 172.338 41.9162 173.514C41.3477 175.193 40.9601 176.928 40.76 178.689H40.7459ZM43.2134 182.75C42.7058 181.946 42.0572 180.86 41.2112 179.465C41.7464 177.695 42.1008 175.877 42.2687 174.036C42.5789 174.783 45.3425 173.712 46.0898 173.43C45.5399 175.164 43.6223 181.199 43.2275 182.75H43.2134ZM42.7904 173.599C41.9166 172.087 41.1441 170.518 40.478 168.904L40.9151 168.664C41.1125 168.777 45.9347 171.625 46.2872 171.85C45.1883 172.549 44.0214 173.135 42.8045 173.599H42.7904ZM47.0204 170.497C45.9629 169.792 44.5247 168.932 43.4249 168.297C43.8012 167.299 44.0476 166.256 44.1581 165.195L48.1625 167.451C48.092 167.987 47.6126 169.087 47.105 170.497H47.0204ZM56.3548 176.137L54.1833 174.826C53.2185 174.445 52.1449 174.445 51.18 174.826C51.7265 173.177 52.1229 171.483 52.3644 169.764L57.4687 172.584C56.9472 173.734 56.6003 174.955 56.4394 176.207L56.3548 176.137Z" fill="black"/>
<path d="M267.139 181.157C264.854 159.894 245.171 127.195 233.411 109.33C239.977 109.856 246.567 110.02 253.151 109.824C255.027 109.824 259.933 109.485 260.878 109.302C261.428 109.189 261.513 108.668 260.681 108.639C259.849 108.611 253.927 108.329 253.123 108.315H238.783C236.584 108.4 233.143 108.597 232.946 108.597C228.716 102.153 225.769 98.1207 225.74 98.1066C225.708 98.0737 225.669 98.0482 225.626 98.0316C225.583 98.0151 225.537 98.0079 225.491 98.0107C225.445 98.0134 225.4 98.0259 225.359 98.0474C225.318 98.0689 225.282 98.0989 225.254 98.1353C225.225 98.1717 225.205 98.2138 225.194 98.2587C225.184 98.3036 225.183 98.3503 225.191 98.3956C225.2 98.4409 225.218 98.4839 225.245 98.5216C225.271 98.5593 225.306 98.5908 225.346 98.6142C225.994 99.1359 254.491 140.774 263.205 169.453C266.659 180.832 268.704 195.116 257.565 199.064C231.113 208.511 23.9388 211.585 4.35362 200.474C1.63229 198.937 0.997783 195.736 1.53359 191.422C2.3655 185.429 5.59444 177.321 9.48609 168.241C13.8712 172.471 50.2497 205.874 56.1436 204.619C62.0374 203.364 95.187 187.967 96.5547 185.02C97.3492 182.973 97.7695 180.8 97.7955 178.604C97.9624 178.375 98.0402 178.092 98.0142 177.809C97.9883 177.527 97.8604 177.263 97.6545 177.068C95.469 174.896 52.1109 140.52 49.3191 140.619C47.3733 140.703 43.8482 142.705 42.1703 143.692C41.6263 142.802 40.8163 142.106 39.8549 141.701C38.8934 141.296 37.8291 141.204 36.8122 141.436C35.8535 141.824 34.995 142.423 34.3014 143.19C33.6078 143.957 33.0971 144.871 32.8078 145.864C32.8236 145.94 32.8652 146.008 32.9255 146.058C32.9859 146.107 33.0613 146.134 33.1391 146.134C33.217 146.134 33.2924 146.107 33.3528 146.058C33.4131 146.008 33.4547 145.94 33.4705 145.864C34.3186 144.43 35.663 143.356 37.2493 142.846C37.9089 142.745 38.5837 142.833 39.1952 143.1C39.8067 143.367 40.3299 143.802 40.7039 144.355L25.0245 151.053C24.192 150.197 23.1526 149.57 22.007 149.234C19.328 148.529 17.5232 150.291 16.4516 152.872C16.428 152.946 16.4307 153.026 16.4593 153.098C16.4879 153.171 16.5406 153.231 16.6085 153.269C16.6764 153.307 16.7554 153.321 16.8321 153.308C16.9089 153.294 16.9786 153.255 17.0297 153.196C18.8345 150.587 20.9213 149.699 23.4171 151.786C20.3996 153.125 16.1837 155.029 13.2226 156.495C13.4341 156.157 43.8623 101.054 43.8623 100.913C45.2018 98.4309 47.895 93.9893 50.6727 93.4112C51.9282 93.1375 53.2089 92.9957 54.4939 92.9882C52.5339 96.2313 36.6289 122.599 36.6007 126.321C36.6007 130.551 37.3339 129.888 39.59 130.551C41.846 131.214 168.085 130.438 168.31 130.438C170.496 130.438 179.041 130.156 179.83 129.578C182.284 127.773 181.734 125.08 180.662 122.246C180.408 121.569 179.125 118.763 177.405 115.013C184.808 112.785 190.377 115.619 190.885 127.703C191.392 138.151 187.275 141.338 179.393 140.887C173.062 140.52 168.691 138.659 167.309 141.126C165.758 143.876 170.045 150.052 171.906 152.618C171.638 152.618 159.836 152.378 156.861 152.251C152.669 152.089 148.471 152.141 144.284 152.406C141.4 152.47 138.533 152.862 135.739 153.577C134.682 154.098 133.314 156.82 132.736 157.962C131.594 160.204 126.391 174.276 124.952 178.337C124.106 180.677 121.244 188.432 123.162 189.8C123.091 191.309 123.331 193.325 124.656 194.03C125.982 194.735 144.199 195.243 145.595 195.271C148.063 195.341 173.006 195.666 188.925 194.961C204.844 194.256 211.795 192.733 211.387 192.775C211.791 192.656 212.154 192.427 212.435 192.113C212.717 191.799 212.905 191.413 212.98 190.999C213.197 189.956 213.129 188.875 212.782 187.868C214.559 184.414 201.122 155.734 197.399 153.718C197.179 153.594 196.932 153.526 196.68 153.52C195.933 153.52 179.21 152.815 172.71 152.604C171.3 150.616 166.717 143.128 168.48 141.535C171.159 139.194 193.536 150.926 192.337 127.576C191.717 117.015 186.852 110.825 176.982 114.406C176.122 112.545 168.903 97.1196 166.971 93.0164C174.454 93.4642 181.962 93.2991 189.418 92.5229C189.526 93.8389 189.904 95.1184 190.53 96.2808C191.156 97.4432 192.016 98.4633 193.056 99.2769C198.696 103.507 221.144 102.872 225.219 97.6977C226.361 96.1361 227.15 94.3452 227.532 92.4488C227.914 90.5524 227.88 88.5956 227.433 86.7136C227.808 86.475 228.098 86.1249 228.264 85.7125C228.49 85.2754 228.264 84.7255 227.292 84.5281C226.036 84.3401 224.767 84.2646 223.499 84.3025C223.499 83.1463 223.569 80.989 223.499 78.5355C223.625 78.4509 224.542 77.3511 224.641 77.2242C225.764 75.9111 226.652 74.4131 227.263 72.7968C227.729 71.4854 227.912 69.9767 226.685 69.2435C224.796 68.2142 223.47 70.1036 222.836 72.2187C222.244 68.9615 220.876 64.1816 217.605 64.661C212.049 65.507 215.884 78.9726 217.689 84.3025C216.104 84.0793 214.495 84.0793 212.909 84.3025C214.672 79.8751 215.574 74.1504 211.048 73.2903C210.362 73.1385 209.646 73.1913 208.99 73.4418C208.333 73.6924 207.764 74.1299 207.354 74.7003C207.263 74.3811 207.093 74.0902 206.86 73.8548C206.626 73.6193 206.336 73.447 206.018 73.354C205.699 73.261 205.363 73.2504 205.039 73.3231C204.715 73.3958 204.415 73.5494 204.167 73.7697C202.094 75.2643 203.279 78.6906 205.69 79.8186C205.563 81.2682 205.563 82.7261 205.69 84.1756C204.189 83.9942 202.67 84.0275 201.178 84.2743C201.094 80.8315 200.717 77.4021 200.05 74.0235C200.907 73.4139 201.627 72.6328 202.166 71.7298C202.705 70.8269 203.05 69.8217 203.18 68.7782C203.378 66.9029 202.715 65.3378 201.15 64.9289C199.19 64.4212 198.034 65.789 197.695 67.7489C195.961 65.3519 192.563 64.4918 190.913 67.2413C185.625 61.7422 183.073 64.8161 184.413 67.2413C185.414 69.1025 188.023 70.1459 190.053 70.724C190.053 73.8825 191.463 76.5474 193.211 79.2687C194.382 81.1018 195.693 82.8643 196.708 84.1615C194.514 84.091 192.318 84.2327 190.152 84.5845C188.826 84.937 188.615 85.8958 189.841 86.5867C189.454 88.2395 189.311 89.9403 189.418 91.6346C181.844 91.2316 174.25 91.4107 166.703 92.1704C166.224 91.1411 164.8 88.1377 164.63 87.7852C164.461 87.4327 165.815 83.3437 167.718 45.3296C176.46 44.5964 215.772 45.4706 219.381 44.0747C219.588 44.0004 219.772 43.8725 219.913 43.704C220.054 43.5355 220.148 43.3326 220.185 43.1159C221.384 39.1819 222.201 5.36972 220.185 2.22538C219.692 1.44987 217.929 1.21017 216.956 1.06916C204.393 -0.763859 151.968 0.0257491 149.275 1.44987C146.582 2.87398 147.724 16.7768 148.232 19.5404C121.004 18.6662 58.1317 20.3723 52.2096 22.586C50.7996 23.0936 50.2779 25.0254 49.9959 26.4777C47.6553 38.5615 54.2259 77.4498 56.4256 89.4632C56.2846 89.4632 56.4256 89.4632 54.7054 92.1422C53.2493 92.0343 51.7855 92.1101 50.3484 92.3678C47.1336 92.8613 44.1725 97.3029 42.5369 100.067C42.4664 100.208 38.3069 107.117 37.6864 108.245C34.1473 107.695 17.6924 107.906 15.6056 108.019C13.5187 108.132 11.3755 108.287 9.48609 108.428C9.14768 108.428 9.11948 109.077 9.48609 109.091C13.4341 109.33 14.8865 109.415 17.9462 109.457C25.4334 109.57 36.4738 109.88 36.8263 109.838C36.0931 111.121 25.236 130.438 23.7837 133.174C17.4668 145.018 12.5035 155.861 12.2074 156.777C10.5683 157.523 9.02888 158.47 7.62487 159.597C7.172 160.84 6.90129 162.141 6.82115 163.461C6.75065 165.731 7.56846 166.281 8.82338 167.55C5.45612 174.765 2.68786 182.244 0.546577 189.913C-0.152472 193.015 -0.181315 196.231 0.461976 199.346C1.03769 202.459 2.11384 205.459 3.64862 208.229C4.33803 208.929 5.23143 209.393 6.20075 209.554C9.90909 210.598 21.4007 211.937 25.2501 212.374C24.9599 214.097 24.8794 215.849 25.0104 217.591C25.0142 219.387 25.2753 221.172 25.7859 222.893C25.7905 222.936 25.8035 222.977 25.8241 223.015C25.8446 223.052 25.8724 223.085 25.9058 223.112C25.9392 223.139 25.9775 223.159 26.0187 223.171C26.0598 223.183 26.1029 223.187 26.1454 223.182C26.188 223.178 26.2293 223.165 26.2669 223.144C26.3044 223.123 26.3376 223.096 26.3644 223.062C26.3913 223.029 26.4113 222.991 26.4233 222.949C26.4353 222.908 26.4391 222.865 26.4345 222.823C26.6601 221.065 26.7214 219.29 26.6178 217.521C26.6085 215.818 26.4147 214.12 26.0397 212.459C27.9855 212.628 29.8608 212.769 31.4965 212.826C31.2364 214.471 31.1654 216.141 31.285 217.803C31.2897 219.598 31.5509 221.383 32.0605 223.105C32.0605 223.191 32.0946 223.273 32.1555 223.334C32.2163 223.395 32.2988 223.429 32.3848 223.429C32.4708 223.429 32.5533 223.395 32.6141 223.334C32.6749 223.273 32.7091 223.191 32.7091 223.105C32.9423 221.348 33.0084 219.572 32.9065 217.803C32.8968 216.156 32.7077 214.516 32.3425 212.91C35.4868 212.981 81.7636 217.14 161.683 215.561C183.102 215.138 208.848 214.151 230.055 211.824C229.775 213.525 229.695 215.252 229.815 216.971C229.822 218.762 230.088 220.543 230.605 222.259C230.595 222.306 230.596 222.355 230.607 222.402C230.618 222.449 230.64 222.493 230.67 222.53C230.701 222.568 230.739 222.598 230.783 222.619C230.826 222.639 230.874 222.65 230.922 222.65C230.971 222.65 231.018 222.639 231.062 222.619C231.105 222.598 231.144 222.568 231.174 222.53C231.205 222.493 231.226 222.449 231.238 222.402C231.249 222.355 231.25 222.306 231.24 222.259C231.486 220.503 231.552 218.726 231.437 216.957C231.422 215.215 231.218 213.48 230.831 211.782C232.396 211.613 236.02 211.162 236.33 211.119C236.052 212.811 235.976 214.529 236.104 216.238C236.105 218.033 236.366 219.819 236.88 221.54C236.889 221.626 236.932 221.704 237 221.759C237.067 221.813 237.153 221.838 237.239 221.829C237.325 221.819 237.404 221.776 237.458 221.709C237.512 221.641 237.538 221.555 237.528 221.469C237.76 219.717 237.822 217.946 237.712 216.181C237.703 214.444 237.499 212.713 237.105 211.021C243.464 210.161 262.909 207.538 265.559 202.109C268.69 195.919 268.436 187.868 267.139 181.157ZM138.827 158.455C138.982 158.075 143.706 157.045 148.866 158.455C148.914 158.445 148.962 158.446 149.009 158.457C149.056 158.469 149.1 158.49 149.138 158.521C149.175 158.551 149.206 158.589 149.226 158.633C149.247 158.677 149.258 158.724 149.258 158.773C149.258 158.821 149.247 158.869 149.226 158.912C149.206 158.956 149.175 158.994 149.138 159.025C149.1 159.055 149.056 159.077 149.009 159.088C148.962 159.099 148.914 159.1 148.866 159.09C146.297 159.546 143.673 159.613 141.083 159.287C139.87 159.09 138.333 159.076 138.785 158.455H138.827ZM211.316 191.986C198.273 194.467 126.221 193.903 125.136 193.396C124.05 192.888 123.951 191.252 123.923 190.181C131.735 192.719 208.059 190.759 212.303 188.517C212.529 189.758 212.585 191.746 211.274 191.986H211.316ZM183.948 158.61C183.948 158.131 187.05 157.863 187.191 157.849C189.035 157.707 190.888 157.707 192.732 157.849C193.761 157.962 195.185 158.103 195.073 158.54C194.96 158.977 192.831 159.16 192.464 159.217C191.086 159.344 189.702 159.4 188.319 159.386C187.388 159.358 183.849 159.189 183.905 158.61H183.948ZM202.066 163.306C205.594 170.028 208.556 177.031 210.921 184.245C211.222 185.156 211.388 186.106 211.415 187.065C205.056 189.039 131.763 191.069 124.346 188.94C123.994 188.841 123.895 188.94 123.81 188.348C123.274 184.512 129.549 169.27 131.001 165.717C157.679 164.829 201.784 163.461 202.024 163.306H202.066ZM190.194 70.0895C188.652 69.2425 187.253 68.1575 186.048 66.8747C185.499 66.0428 185.625 65.4647 187.247 66.2543C188.262 66.7196 189.686 67.5515 190.645 68.1296C190.399 68.757 190.247 69.4175 190.194 70.0895ZM224.034 72.6135C225.162 70.583 226.276 70.0049 226.163 71.2034C225.558 73.3481 224.696 75.4121 223.597 77.3511C223.513 75.9411 223.414 74.9964 223.301 74.0658C223.358 73.8684 223.64 73.2762 223.992 72.6135H224.034ZM218.042 84.8806C218.324 85.6843 218.507 86.1637 218.521 86.1919C218.537 86.2319 218.56 86.2683 218.59 86.2992C218.62 86.3301 218.655 86.3548 218.694 86.3718C218.734 86.3889 218.776 86.3979 218.819 86.3985C218.862 86.3991 218.904 86.3912 218.944 86.3752C219.565 86.1355 218.648 85.5574 217.182 77.055C216.745 74.517 215.447 66.6914 218.014 66.3248C220.1 66.0146 221.228 71.1893 221.623 73.2339C222.355 77.1748 222.826 81.1597 223.033 85.1626C223.032 85.2407 223.059 85.3165 223.11 85.3762C223.16 85.4358 223.231 85.4753 223.308 85.4873C223.385 85.4993 223.464 85.483 223.53 85.4415C223.596 85.4 223.645 85.336 223.668 85.2613C223.672 85.1815 223.672 85.1014 223.668 85.0216C224.942 85.0592 226.209 85.2341 227.447 85.5433C227.289 85.7271 227.091 85.8719 226.868 85.9663C223.907 87.4891 214.954 87.193 211.866 87.1366C212.289 86.2906 212.585 85.642 212.909 84.8665C214.594 85.1435 216.313 85.1482 217.999 84.8806H218.042ZM207.044 81.7927C207.368 78.9726 208.087 74.4747 210.935 75.0105C213.784 75.5463 213.064 79.6777 212.444 82.4413C212.061 84.0267 211.591 85.5896 211.034 87.1225H206.804C206.77 85.3436 206.836 83.5642 207.001 81.7927H207.044ZM205.253 75.1656C205.318 75.1031 205.396 75.055 205.482 75.0245C205.567 74.994 205.658 74.9816 205.748 74.9883C205.838 74.9949 205.926 75.0204 206.006 75.0631C206.086 75.1058 206.156 75.1647 206.212 75.2361C206.436 75.461 206.639 75.7065 206.818 75.9693C206.418 76.8685 206.138 77.8167 205.986 78.7893C205.253 77.7741 204.308 75.927 205.253 75.1656ZM200.811 66.5927C202.644 67.1708 201.206 71.993 199.979 73.4595C199.64 71.9419 199.134 70.4664 198.471 69.0602C198.88 67.8194 199.571 66.1979 200.811 66.5786V66.5927ZM197.343 85.0357C198.034 85.9099 198.485 86.4457 198.485 86.4457C198.541 86.501 198.615 86.534 198.694 86.5387C198.772 86.5433 198.85 86.5192 198.912 86.4709C198.974 86.4226 199.016 86.3534 199.031 86.2761C199.046 86.1988 199.032 86.1188 198.992 86.0509C198.992 86.0509 196.497 82.4977 194.438 78.8175C192.887 75.9975 191.407 73.1775 191.815 70.0613C192.14 67.6079 193.437 66.5645 195.623 67.9886C198.781 70.019 200.219 82.54 200.67 86.3188C200.675 86.4177 200.71 86.5128 200.77 86.5911C200.831 86.6693 200.914 86.7269 201.009 86.7559C201.389 86.7559 201.333 86.347 201.319 86.1496C201.305 85.9522 201.319 84.9652 201.319 84.8665C202.817 85.056 204.333 85.056 205.831 84.8665C205.916 85.8958 206.014 86.6995 206.085 87.1225C201.079 87.1225 195.03 87.4609 190.885 85.8394C193.016 85.4179 195.174 85.1493 197.343 85.0357ZM190.589 87.1084C192.651 87.9077 194.825 88.3833 197.033 88.5185C199.528 88.7441 216.519 88.7723 218.451 88.6736C221.364 88.6257 224.248 88.087 226.981 87.0802C227.244 88.8116 227.145 90.5786 226.691 92.27C226.237 93.9614 225.438 95.5405 224.345 96.9081C220.918 100.927 199.246 101.843 194.043 98.1771C190.617 95.8223 189.997 91.1129 190.589 87.0943V87.1084ZM179.224 128.507C179.52 129.451 45.0749 129.494 44.9339 129.479C39.2939 129.479 40.7039 129.479 38.8145 129.014C38.3068 128.901 38.2081 128.901 38.1094 128.408C37.9898 127.634 37.9567 126.849 38.0107 126.067C38.0403 126.125 38.0881 126.172 38.1467 126.2C38.2053 126.228 38.2715 126.236 38.3351 126.222C38.3351 126.222 179.182 124.305 180.098 124.277C180.479 125.926 180.535 127.463 179.224 128.507ZM218.888 42.9326C218.888 42.9326 218.972 42.7916 219.001 42.8339C219.029 42.8762 218.888 42.9185 218.817 42.9326H218.888ZM148.768 7.37194C148.768 6.45543 149.134 2.98679 149.952 2.56378C151.813 1.63317 210.964 0.84356 219.043 3.36749C220.453 6.32853 220.002 39.5908 218.817 42.9326C211.88 44.0183 176.968 43.9337 167.887 44.8643C168.437 33.7675 168.677 24.4191 168.226 22.6001C168.139 22.3629 167.998 22.1491 167.815 21.9754C167.631 21.8017 167.41 21.6729 167.168 21.599C164.08 20.2595 152.462 19.8788 149.078 19.766C148.639 15.6499 148.535 11.5049 148.768 7.37194ZM51.2649 42.8762C51.0534 39.9151 50.01 24.969 52.83 23.9255C54.2401 23.432 59.2033 22.9385 66.4085 22.5155C80.2126 21.6554 101.969 20.9645 121.766 20.8235C126.165 20.8235 163.333 20.4992 166.971 22.9949C168.043 27.8736 164.616 82.0747 163.855 87.3058C130.536 88.3916 91.0556 90.0272 57.4549 89.2094C56.8909 85.9804 52.5762 61.0654 51.2649 42.8762ZM57.0178 90.1541C57.0205 90.1212 57.0205 90.0882 57.0178 90.0554C80.7766 90.7886 155.127 88.3493 164.179 88.2928C165.18 90.6194 179.238 121.809 179.83 123.543C179.675 123.543 38.2222 125.461 38.0389 125.602C39.8156 119.652 54.508 94.4969 57.0178 90.1541ZM95.7792 184.625C94.7357 186.656 63.1232 200.784 56.623 202.744C56.749 202.094 56.7964 201.431 56.764 200.77C66.3662 197.442 87.2063 188.658 96.5547 182.44C96.3765 183.199 96.1165 183.936 95.7792 184.639V184.625ZM96.7521 181.509C93.932 183.173 91.2389 184.329 56.7499 200.009C56.7512 199.37 56.6658 198.735 56.4961 198.119C61.0081 196.004 91.6055 184.146 97.0623 179.422C96.9918 180.029 96.8931 180.762 96.7521 181.523V181.509ZM24.1221 152.576C24.8001 153.374 25.2197 154.36 25.3255 155.402C25.4312 156.445 25.2181 157.494 24.7143 158.413C24.4887 158.766 25.0245 159.132 25.2501 158.766C26.1013 157.838 26.6045 156.643 26.674 155.386C26.7434 154.129 26.3747 152.886 25.6308 151.871C32.4835 148.726 39.2234 145.765 41.0705 144.961C41.5326 145.9 41.7799 146.93 41.7946 147.976C41.8092 149.023 41.5908 150.059 41.1551 151.01C40.9859 151.462 41.4935 151.631 41.7332 151.335C42.5087 150.349 42.9913 149.166 43.126 147.919C43.2606 146.672 43.0418 145.413 42.4946 144.285C44.0174 143.425 47.5707 141.465 49.305 141.465C51.4764 141.465 95.5395 177.307 96.3573 178.125C92.6771 181.918 58.5124 195.44 55.636 196.822C49.5729 195.412 12.574 163.588 9.10538 160.317C11.2627 158.526 21.6968 153.704 24.1221 152.576ZM8.03377 160.965C12.433 165.266 49.1358 197.301 55.2835 198.317C55.1601 198.848 55.1033 199.393 55.1143 199.938C45.2441 195.116 17.0438 170.694 7.70947 162.84C7.75177 162.84 7.96327 161.459 8.07607 160.965H8.03377ZM8.24527 165.802C7.84754 165.196 7.65024 164.481 7.68127 163.757C16.9028 173.063 42.9317 195.948 55.1002 200.714C55.0751 201.468 55.1509 202.222 55.3258 202.955C48.0924 201.334 9.20409 166.958 8.28757 165.802H8.24527ZM264.868 201.644C255.76 219.721 8.58368 214.997 4.57923 207.947C2.88183 204.996 1.73516 201.762 1.19518 198.401C1.73912 199.592 2.64768 200.58 3.78962 201.221C24.5451 213.305 231.042 210.147 258.002 200.46C263.712 198.401 266.589 193.96 267.237 187.77C267.62 192.523 266.795 197.295 264.84 201.644H264.868Z" fill="black"/>
<path d="M53.7324 105.749C153.435 107.159 162.952 106.299 165.744 105.862C166.407 105.763 166.83 105.537 166.802 104.762C166.802 102.717 162.008 93.3407 160.739 92.6921C160.175 92.396 59.2174 93.8201 58.8649 93.9329C58.7992 93.9487 58.7376 93.9783 58.6841 94.0196C58.6307 94.0609 58.5866 94.1131 58.5547 94.1726C57.5958 95.7377 52.9146 103.465 53.1261 105.213C53.149 105.359 53.2221 105.492 53.3328 105.59C53.4434 105.688 53.5848 105.744 53.7324 105.749ZM59.2738 94.9058C60.289 94.7789 159.611 93.7919 160.217 93.8483C161.27 95.3626 162.212 96.9506 163.037 98.6001C160.725 98.6001 57.3702 99.15 56.8344 99.1641C57.4548 97.9233 58.2727 96.5132 59.2738 94.9058ZM56.4537 99.8409C57.0036 99.8409 161.585 99.3051 163.375 99.2628C164.303 100.99 165.036 102.816 165.561 104.705C160.541 105.509 114.8 105.114 54.24 104.705C54.8058 102.998 55.5379 101.349 56.4255 99.7845L56.4537 99.8409ZM131.551 110.543C131.27 109.92 130.81 109.395 130.231 109.034C129.651 108.672 128.977 108.491 128.294 108.512C124.713 108.512 94.637 107.681 91.9298 108.78C90.2015 110.875 88.8642 113.263 87.9817 115.83C87.8971 116.451 88.2073 116.733 88.588 116.775C97.0481 117.692 125.093 118.566 132.369 117.226C133.271 117.057 133.384 116.098 133.201 115.182C132.764 113.598 132.213 112.047 131.551 110.543ZM88.9828 115.83C89.7928 113.542 90.8921 111.367 92.2541 109.358C94.3973 108.653 122.273 110.12 128.336 110.106C128.697 110.093 129.054 110.184 129.365 110.37C129.675 110.555 129.925 110.825 130.085 111.149C130.77 112.614 131.304 114.145 131.678 115.718C124.529 116.832 94.1717 116.197 88.9828 115.83ZM229.477 112.348C227.489 109.612 217.52 109.739 214.178 109.838C211.358 109.838 201.107 110.303 201.107 113.067C201.119 113.291 201.184 113.509 201.297 113.702C201.41 113.896 201.567 114.06 201.756 114.181C202.024 114.392 200.177 132.976 202.715 142.945C203.547 146.245 204.618 147.88 207.763 149.248C213.798 151.871 223.809 151.292 227.827 145.695C228.631 144.059 228.462 139.293 228.532 137.841C234.779 139.082 239.897 136.544 241.222 129.818C242.054 125.489 240.983 122.655 239.136 120.935C237.902 119.93 236.443 119.239 234.884 118.919C233.325 118.6 231.712 118.663 230.182 119.102C230.129 119.12 230.072 119.125 230.016 119.116C229.96 119.108 229.907 119.086 229.862 119.053C229.816 119.02 229.779 118.976 229.754 118.926C229.729 118.875 229.716 118.82 229.717 118.763C229.717 118.016 229.985 112.954 229.477 112.348ZM202.687 112.644C206.494 110.416 222.004 110.247 227.009 112.517C227.179 112.602 227.813 112.926 227.813 113.067C227.813 113.208 227.165 113.546 227.009 113.617C223.231 115.323 209.737 116.098 202.644 113.504C202.151 113.236 202.644 112.7 202.644 112.644H202.687ZM230.577 120.54C231.858 120.171 233.21 120.118 234.517 120.385C235.823 120.653 237.045 121.233 238.078 122.077C239.601 123.487 240.362 125.912 239.657 129.508C239.517 130.758 239.084 131.957 238.393 133.008C237.702 134.059 236.773 134.932 235.681 135.557C233.369 136.597 230.765 136.797 228.321 136.121C228.201 136.077 228.073 136.059 227.945 136.067C227.818 136.075 227.693 136.109 227.579 136.167C227.466 136.225 227.365 136.306 227.284 136.405C227.203 136.504 227.143 136.618 227.108 136.741C226.727 137.813 227.263 142.141 226.488 144.877C222.92 149.713 213.798 150.15 208.397 147.88C205.662 146.71 204.9 145.497 204.167 142.579C202.278 135.655 202.165 121.555 202.588 114.618C207.03 116.719 222.413 117.325 228.462 114.223C228.462 118.594 227.926 119.327 229.026 120.216C229.239 120.376 229.484 120.488 229.744 120.544C230.005 120.6 230.275 120.599 230.535 120.54H230.577ZM93.6077 150.418C89.9046 147.277 85.9211 144.483 81.7071 142.071C80.0838 141.113 78.3573 140.342 76.5606 139.773C75.0519 139.378 74.4174 140.153 74.7276 141.183C75.3632 142.66 76.2033 144.042 77.2233 145.286C80.4676 149.393 84.1986 153.09 88.3342 156.298C94.6229 161.557 102.773 167.931 108.723 172.457C109.026 172.678 109.371 172.837 109.736 172.924C110.101 173.01 110.48 173.023 110.851 172.962C111.221 172.9 111.575 172.765 111.893 172.564C112.21 172.364 112.484 172.102 112.699 171.794C113.743 170.652 114.391 168.65 113.221 167.564C111.867 166.351 103.591 158.554 93.6077 150.418ZM80.0997 147.288L78.168 144.172C78.8557 143.886 79.4373 143.393 79.8318 142.762L82.8916 144.003C82.1238 144.155 81.4301 144.562 80.9232 145.159C80.4164 145.755 80.1261 146.506 80.0997 147.288ZM84.4285 150.884C83.4095 150.026 82.466 149.082 81.6084 148.063C81.7071 146.357 82.243 145.596 83.9491 145.54C85.0858 146.083 86.1592 146.749 87.1498 147.528C86.3916 147.712 85.7149 148.141 85.2233 148.747C84.7318 149.353 84.4526 150.103 84.4285 150.884ZM108.54 171.399C106.975 170.088 86.1628 152.435 84.8797 151.307C84.9873 150.517 85.3321 149.779 85.8684 149.19C86.4047 148.601 87.1072 148.188 87.883 148.007C92.7476 151.617 99.7413 157.595 111.938 167.747C111.463 167.723 110.989 167.803 110.548 167.982C110.108 168.161 109.712 168.433 109.388 168.781C109.064 169.129 108.82 169.544 108.674 169.996C108.527 170.449 108.482 170.927 108.54 171.399ZM220.27 187.022C222.032 188.221 223.259 187.671 224.401 186.007C227.221 182.003 237.091 164.279 237.091 164.138C237.091 163.997 237.204 164.265 236.739 158.568C236.718 158.354 236.641 158.149 236.515 157.975C236.388 157.801 236.217 157.665 236.019 157.579C235.822 157.494 235.605 157.464 235.392 157.492C235.178 157.519 234.976 157.604 234.807 157.736L229.985 161.247C229.985 161.247 219.283 183.37 219.17 183.568C218.976 184.187 218.978 184.85 219.175 185.469C219.371 186.087 219.754 186.629 220.27 187.022ZM235.202 159.456C235.286 160.486 235.399 161.853 235.484 162.798C234.436 162.297 233.34 161.905 232.212 161.628L235.202 159.456ZM231.169 162.587C232.391 163.453 233.803 164.014 235.286 164.222C235.075 164.589 224.302 184.245 224.189 184.442C223.862 183.776 223.324 183.236 222.658 182.907C221.993 182.579 221.237 182.479 220.509 182.623C221.609 180.578 230.774 163.292 231.169 162.587Z" fill="black"/>
<path d="M224.683 134.626C224.531 134.413 224.338 134.232 224.115 134.094C223.892 133.956 223.644 133.863 223.386 133.822C222.551 133.599 221.704 133.43 220.848 133.315C221.327 136.67 221.609 140.365 221.595 140.689C221.573 140.904 221.468 141.101 221.302 141.239C221.135 141.376 220.921 141.442 220.707 141.422C220.491 141.397 220.293 141.289 220.156 141.12C220.019 140.952 219.954 140.736 219.973 140.52C219.973 140.28 219.889 139.307 219.818 133.174C216.998 132.821 203.42 131.764 203.956 134.471C203.956 134.612 202.842 141.521 207.156 144.834C211.471 148.148 220.1 147.499 223.118 144.129C223.974 143.104 224.539 141.867 224.753 140.548C225.086 138.586 225.062 136.58 224.683 134.626ZM228.067 121.865C228.067 122.5 227.221 127.35 226.657 133.865L227.334 134.006C229.815 134.532 232.399 134.251 234.708 133.202C235.513 132.755 236.18 132.095 236.635 131.294C237.09 130.493 237.316 129.582 237.288 128.662C237.384 127.517 237.185 126.367 236.71 125.321C236.235 124.275 235.501 123.369 234.576 122.687C233.652 122.006 232.568 121.573 231.429 121.429C230.289 121.285 229.132 121.435 228.067 121.865ZM228.701 122.345C229.601 122.202 230.521 122.254 231.399 122.498C232.277 122.741 233.093 123.17 233.792 123.755C234.462 124.37 234.981 125.131 235.309 125.98C235.637 126.829 235.764 127.742 235.681 128.647C235.554 132.271 231.832 132.962 228.264 132.596C228.433 130.029 228.574 127.082 228.701 122.345ZM92.2258 109.358C92.2258 109.358 92.2399 109.373 92.2258 109.358V109.358ZM213.6 39.5767C213.596 39.8278 213.642 40.0772 213.736 40.3105C213.829 40.5438 213.967 40.7564 214.143 40.9359C214.318 41.1155 214.528 41.2585 214.759 41.3568C214.99 41.455 215.238 41.5066 215.49 41.5084C215.873 41.5168 216.251 41.4107 216.574 41.2036C216.897 40.9965 217.151 40.6978 217.304 40.3457C217.457 39.9935 217.501 39.6039 217.431 39.2264C217.362 38.849 217.181 38.5008 216.913 38.2264C216.644 37.952 216.3 37.7638 215.925 37.6857C215.549 37.6077 215.158 37.6434 214.803 37.7883C214.447 37.9332 214.143 38.1807 213.929 38.4992C213.715 38.8177 213.6 39.1928 213.6 39.5767ZM59.2737 86.0932C59.598 86.7277 60.021 86.7982 60.2889 86.6008C60.5568 86.4034 149.853 85.6278 156.494 85.2753C157.923 85.2973 159.347 85.1169 160.724 84.7395C163.897 81.9195 165.138 29.1989 163.897 26.7596C160.724 20.4286 61.431 24.5036 55.3256 26.3507C50.4611 27.8171 57.0317 81.5952 59.2737 86.0932ZM55.0577 28.6349C55.0577 28.3811 55.3679 27.3941 55.6076 27.3236C62.3616 25.2932 160.428 21.9515 163.093 27.2531C163.321 28.3139 163.425 29.3974 163.403 30.4821C163.643 36.6297 163.403 49.7993 162.769 61.6011C162.642 63.8572 161.641 82.3425 160.175 84.0204C154.323 85.2612 64.1523 85.5433 60.1479 85.6983C57.8637 80.3967 52.9286 37.9411 55.0577 28.6349ZM215.673 8.48579C216.056 8.49417 216.433 8.3884 216.756 8.18192C217.079 7.97545 217.333 7.6776 217.486 7.32628C217.639 6.97495 217.684 6.58603 217.616 6.20897C217.547 5.83191 217.368 5.48377 217.101 5.20882C216.834 4.93388 216.491 4.74456 216.116 4.66495C215.741 4.58533 215.351 4.61902 214.996 4.76174C214.64 4.90445 214.335 5.14973 214.119 5.46638C213.903 5.78303 213.786 6.15674 213.783 6.53996C213.778 6.79229 213.822 7.04322 213.915 7.27814C214.007 7.51307 214.145 7.7273 214.321 7.90837C214.497 8.08944 214.707 8.23374 214.939 8.33287C215.171 8.432 215.42 8.48398 215.673 8.48579Z" fill="black"/>
<path d="M82.6522 64.1674H99.4032C101.342 64.1599 103.198 63.3837 104.565 62.009C105.931 60.6344 106.697 58.7737 106.693 56.8353V43.2427C106.693 41.3001 105.928 39.4357 104.564 38.0528C103.2 36.67 101.346 35.8802 99.4032 35.8542H82.6522C81.6809 35.8505 80.7185 36.0391 79.8204 36.409C78.9223 36.779 78.1063 37.3231 77.4194 38.0099C76.7326 38.6968 76.1885 39.5128 75.8185 40.4109C75.4486 41.309 75.26 42.2714 75.2637 43.2427V56.8353C75.2674 57.8018 75.4615 58.7582 75.8348 59.6498C76.2081 60.5414 76.7533 61.3507 77.4394 62.0315C78.1255 62.7124 78.939 63.2514 79.8334 63.6179C80.7278 63.9844 81.6856 64.1711 82.6522 64.1674ZM76.4622 43.2427C76.4879 41.613 77.1497 40.0578 78.3062 38.9092C79.4627 37.7606 81.0223 37.1096 82.6522 37.095H99.4032C100.226 37.0857 101.043 37.2396 101.807 37.5477C102.57 37.8559 103.265 38.3122 103.851 38.8904C104.437 39.4685 104.902 40.157 105.221 40.9162C105.539 41.6753 105.704 42.49 105.706 43.3132V56.8353C105.702 57.6593 105.536 58.4745 105.218 59.2343C104.899 59.9942 104.434 60.6838 103.848 61.2638C103.263 61.8439 102.569 62.3029 101.807 62.6148C101.044 62.9267 100.227 63.0854 99.4032 63.0817H82.6522C81.8356 63.078 81.0278 62.9135 80.2748 62.5976C79.5218 62.2816 78.8383 61.8205 78.2635 61.2405C77.6887 60.6604 77.2338 59.9729 76.9248 59.217C76.6157 58.4612 76.4585 57.6519 76.4622 56.8353V43.2427ZM127.942 74.2349C128.224 75.0668 128.929 74.8835 129.126 74.3618C129.394 73.6145 130.959 68.2423 131.157 67.3117C132.243 66.9733 129.183 68.0308 138.644 64.5904C138.742 64.5524 138.826 64.4855 138.886 64.3987C138.945 64.3119 138.977 64.2091 138.977 64.1039C138.977 63.9987 138.945 63.8959 138.886 63.8091C138.826 63.7223 138.742 63.6555 138.644 63.6175L124.149 57.8223C124.06 57.7802 123.961 57.7621 123.863 57.7699C123.765 57.7777 123.671 57.8111 123.589 57.8667C123.508 57.9223 123.443 57.9982 123.4 58.0869C123.357 58.1756 123.338 58.274 123.345 58.3722C123.345 58.3722 127.166 71.993 127.942 74.2349ZM124.798 59.331L137.008 64.1392C135.373 64.7455 132.609 65.7889 131.284 66.3247C130.692 66.5503 130.452 66.649 130.311 66.8323C130.17 67.0156 130.663 65.9158 128.591 72.3032L124.798 59.331ZM158.074 17.9893C158.091 18.0739 158.136 18.1499 158.203 18.2041C158.271 18.2582 158.354 18.287 158.441 18.2854C158.737 18.2854 167.86 19.1596 169.721 18.6661C170.919 18.3418 171.131 16.2268 171.244 14.986C171.385 13.1106 171.244 8.51398 170.454 6.94886C169.382 4.83383 161.472 5.53884 159.174 5.94774C158.564 6.03358 157.981 6.25523 157.468 6.59635C157.169 6.94307 156.995 7.37999 156.974 7.83717C156.96 11.2517 157.329 14.657 158.074 17.9893ZM158.483 7.68207C160.711 6.99116 167.056 6.72325 169.072 7.68207C169.763 9.51509 170.13 15.8179 169.298 17.2843C167.986 17.6227 159.978 17.6227 158.638 17.6368C158.596 16.537 157.947 10.6008 158.483 7.68207ZM176.996 17.9329C177.015 18.0162 177.062 18.0908 177.128 18.1445C177.195 18.1982 177.278 18.228 177.363 18.229C177.659 18.229 186.782 19.1032 188.643 18.6097C189.842 18.2854 190.053 16.1704 190.18 14.9296C190.307 13.0542 190.18 8.45758 189.376 6.89246C188.305 4.76333 180.395 5.48244 178.096 5.89135C177.488 5.98298 176.906 6.20416 176.39 6.53995C176.098 6.89045 175.925 7.32516 175.897 7.78077C175.884 11.1952 176.252 14.6005 176.996 17.9329ZM177.405 7.62567C179.633 6.92066 185.978 6.66685 187.995 7.62567C188.686 9.45869 189.052 15.7615 188.22 17.2138C186.909 17.5663 178.9 17.5663 177.561 17.5804C177.518 16.4806 176.87 10.5444 177.405 7.62567ZM196.793 18.5533C196.81 18.6379 196.856 18.7139 196.923 18.7681C196.99 18.8222 197.074 18.851 197.16 18.8494C197.456 18.8494 206.579 19.7236 208.44 19.2301C209.638 18.9058 209.85 16.7908 209.963 15.55C210.104 13.6746 209.963 9.07798 209.173 7.51287C208.102 5.39784 200.191 6.10285 197.893 6.51175C197.284 6.60122 196.702 6.82257 196.187 7.16036C195.888 7.50707 195.714 7.94399 195.693 8.40118C195.679 11.8157 196.048 15.221 196.793 18.5533ZM197.202 8.24608C199.43 7.55517 205.775 7.28726 207.791 8.24608C208.482 10.0791 208.849 16.3819 208.017 17.8483C206.706 18.1867 198.697 18.1867 197.357 18.2008C197.315 17.101 196.666 11.1648 197.202 8.24608ZM177.123 39.619C177.222 39.901 177.448 39.9292 177.49 39.9151C177.8 39.9151 186.909 40.7893 188.77 40.2958C189.969 39.9715 190.18 37.8564 190.307 36.6156C190.434 34.7403 190.307 30.1437 189.517 28.5926C188.432 26.4635 180.522 27.1826 178.237 27.5774C177.623 27.6649 177.036 27.8863 176.517 28.226C176.222 28.5803 176.049 29.0204 176.024 29.4809C176.01 32.8908 176.379 36.2913 177.123 39.619ZM177.546 29.3117C179.774 28.6208 186.105 28.3529 188.122 29.3117C188.812 31.1448 189.179 37.4475 188.347 38.914C187.036 39.2524 179.041 39.2524 177.702 39.2665C177.645 38.1666 176.996 32.2305 177.546 29.3117ZM210.09 28.0145C212.346 24.6869 214.32 21.6835 214.39 21.5425C214.461 21.4015 213.431 20.1325 212.825 21.0349C208.51 27.6761 209.103 27.0416 208.792 26.9288C206.311 26.0264 198.302 26.3366 197.047 27.5069C196.201 28.2965 196.525 31.1589 196.624 32.3856C195.722 31.878 195.031 31.5114 194.777 31.4127C194.128 31.1589 194.171 31.7934 194.523 32.019L196.723 33.429C196.901 35.282 197.188 37.1229 197.583 38.9422C197.597 39.0281 197.642 39.1058 197.709 39.1605C197.777 39.2151 197.862 39.2428 197.949 39.2383C198.245 39.2383 207.368 40.1125 209.23 39.619C211.655 38.9422 210.907 30.0449 210.09 28.0145ZM197.992 28.5926C201.308 27.8379 204.745 27.7755 208.087 28.4093L203.195 36.1221C202.701 35.8401 200.064 34.2891 197.865 33.0483C197.772 31.5764 197.814 30.0991 197.992 28.6349V28.5926ZM208.806 38.1807C207.481 38.5333 199.486 38.5332 198.147 38.5474C198.147 37.9833 197.935 36.1362 197.837 34.0917L203.195 37.4193C203.33 37.4342 203.467 37.4102 203.589 37.3503C203.711 37.2904 203.814 37.197 203.886 37.0809C204.337 36.5028 206.607 33.2034 208.919 29.8052C209.356 32.3433 209.497 36.9681 208.835 38.1807H208.806ZM152.744 8.02047C153.127 8.02605 153.502 7.91787 153.823 7.70965C154.145 7.50143 154.396 7.20256 154.547 6.85094C154.698 6.49932 154.741 6.11079 154.671 5.73463C154.601 5.35848 154.421 5.01164 154.153 4.73811C153.886 4.46458 153.543 4.27668 153.168 4.19824C152.794 4.11981 152.404 4.15437 152.05 4.29755C151.695 4.44072 151.39 4.68606 151.175 5.00245C150.96 5.31883 150.844 5.69201 150.841 6.07465C150.841 6.58347 151.04 7.07209 151.396 7.43581C151.751 7.79953 152.235 8.00941 152.744 8.02047Z" fill="black"/>
</svg>
