<svg width="268" height="246" viewBox="0 0 268 246" fill="none" xmlns="http://www.w3.org/2000/svg">
<path d="M176.542 35.9229C178.896 37.206 181.477 35.2178 180.194 35.4716C179.139 35.618 178.066 35.4513 177.106 34.9922C177.57 33.2177 177.835 31.3969 177.895 29.5637C177.444 25.1221 175.71 35.387 176.542 35.9229ZM183.31 37.9251C181.9 39.3351 180.151 40.3644 181.604 40.2093C183.549 40.0119 184.861 38.0802 184.156 37.065C183.592 37.4316 183.958 37.2624 183.31 37.9251ZM181.674 28.2524C181.251 28.76 181.674 29.9021 181.773 30.4097C181.803 30.5485 181.885 30.6707 182.001 30.7519C182.118 30.8331 182.261 30.8673 182.402 30.8477C182.542 30.8281 182.67 30.7561 182.76 30.6462C182.85 30.5362 182.895 30.3964 182.887 30.2546C182.732 28.9856 182.421 27.3781 181.674 28.2524ZM173.806 30.8468C173.341 27.6037 172.396 28.9997 172.481 29.5355C172.594 31.7069 173.961 31.9466 173.806 30.8468ZM180.828 26.0104C188.555 26.7577 180.574 23.4301 180.151 25.8976L180.828 26.0104ZM132.098 84.0186C130.49 84.5826 130.815 86.2887 132.803 85.5414C136.868 83.909 141.138 82.8416 145.493 82.3688C145.493 93.8182 144.915 98.2597 145.578 98.5699C146.297 98.2879 146.889 82.9328 146.847 81.6497C146.72 79.2809 134.622 83.1162 132.098 84.0186ZM118.449 99.8672C116.376 104.309 112.71 110.372 117.208 111.909C119.732 112.755 130.42 111.909 128.375 106.17C126.571 101.037 120.846 94.8616 118.449 99.8672ZM189.401 129.633C187.497 129.083 170.803 125.938 169.985 126.742C168.208 128.533 178.064 127.518 189.091 130.718C189.235 130.759 189.389 130.742 189.52 130.669C189.651 130.596 189.748 130.475 189.789 130.331C189.83 130.187 189.812 130.032 189.739 129.901C189.667 129.77 189.545 129.674 189.401 129.633ZM190.966 121.497C186.133 120.342 181.215 119.578 176.26 119.213C176.11 119.231 175.974 119.309 175.881 119.428C175.789 119.547 175.747 119.698 175.766 119.847C175.785 119.997 175.862 120.133 175.981 120.225C176.1 120.318 176.251 120.359 176.401 120.341C181.203 120.723 185.968 121.473 190.656 122.583C190.8 122.624 190.954 122.606 191.085 122.533C191.216 122.461 191.313 122.339 191.354 122.195C191.395 122.051 191.377 121.896 191.305 121.766C191.232 121.635 191.11 121.538 190.966 121.497ZM81.1116 40.7028C79.3209 40.9002 78.771 40.3926 78.6159 40.7874C78.2352 43.3959 85.0597 40.59 81.1116 40.7028ZM75.1895 30.0854C75.1895 26.5744 74.0615 27.6178 74.0615 30.0854C74.0615 30.235 74.1209 30.3784 74.2267 30.4842C74.3325 30.59 74.4759 30.6494 74.6255 30.6494C74.7751 30.6494 74.9186 30.59 75.0243 30.4842C75.1301 30.3784 75.1895 30.235 75.1895 30.0854ZM85.1866 28.76C85.1986 28.8331 85.2249 28.9032 85.264 28.9661C85.3031 29.0291 85.3543 29.0837 85.4145 29.1269C85.4747 29.1702 85.5429 29.2011 85.6151 29.2179C85.6872 29.2348 85.762 29.2373 85.8352 29.2253C85.9083 29.2132 85.9784 29.1869 86.0413 29.1478C86.1043 29.1087 86.1589 29.0576 86.2022 28.9973C86.2454 28.9371 86.2763 28.869 86.2932 28.7968C86.31 28.7246 86.3125 28.6498 86.3005 28.5767C85.7788 25.1785 84.7777 26.1937 85.1866 28.76Z" fill="black"/>
<path d="M242.531 162.994C253.063 154.928 252.711 140.095 252.401 139.616C256.447 135.386 256.56 123.118 255.39 120.594C253.811 117.168 260.861 86.9655 249.355 78.5477C250.37 78.0965 252.302 76.9403 252.443 75.4316C252.697 72.4565 249.891 71.977 247.748 70.708C238.794 65.4487 238.23 53.7878 220.689 49.4732C220.041 48.2746 219.9 48.0631 219.378 47.1889C232.068 48.0631 230.433 41.1118 228.247 39.3915C226.871 38.596 225.397 37.9844 223.862 37.5726C229.206 35.3307 229.051 28.6049 222.17 29.2253C221.352 29.2958 224.003 27.1244 221.846 24.3466C221.36 23.5974 220.676 22.9985 219.869 22.6173C219.061 22.2362 218.164 22.088 217.277 22.1893C217.277 17.4658 215.007 15.5481 212.314 15.5481C216.276 9.73886 210.988 3.26688 203.572 6.86243C205.334 2.77338 200.639 -4.58691 189.881 3.94369C189.204 0.982655 179.841 -2.10528 178.826 2.22347C178.304 4.4372 174.596 -1.75278 167.828 3.32328C165.981 4.7333 165.008 7.05983 167.179 7.79304C160.453 8.28655 157.873 14.547 163.09 15.9006C164.218 16.1967 160.947 16.9582 161.469 21.16C161.863 24.3748 164.712 26.222 167.038 24.4594C167.814 23.8813 167.588 23.7544 167.518 24.3607C167.498 24.5987 167.527 24.838 167.603 25.0645C167.678 25.291 167.798 25.5 167.956 25.6789C168.114 25.8579 168.307 26.0033 168.522 26.1062C168.737 26.2092 168.971 26.2678 169.21 26.2784C169.423 27.5134 169.748 28.7264 170.183 29.9021C165.078 29.9021 162.047 34.3014 163.4 36.4446C164.965 38.898 167.715 37.2624 164.275 39.039C157.605 42.4936 159.283 48.2182 163.372 48.1759C167.461 48.1336 164.782 46.6249 165.417 50.714C165.811 53.4071 170.183 56.0438 173.877 52.6598C174.92 53.9147 175.132 54.7184 176.401 55.367C165.811 62.4171 169.506 65.8435 155.772 79.6898C154.179 81.3114 153.714 80.7051 152.952 81.4524C152.191 82.1997 153.234 86.6835 157.182 86.3592C152.853 99.0494 157.182 95.1436 150.922 95.8063C150.781 95.8063 152.571 77.2928 152.332 74.7407C152.191 73.4858 151.937 73.514 137.78 76.7429C138.246 67.2958 138.147 47.767 137.329 47.5696C137.188 47.5696 126.994 47.5696 126.994 47.3017C126.768 46.3993 127.431 42.5218 127.247 41.7886C127.078 41.3092 126.514 41.3233 126.063 41.0272C120.592 37.3893 127.473 39.3774 127.995 38.8416C128.756 37.9956 127.995 29.465 129.405 29.465C130.815 30.2123 129.687 37.347 130.223 38.0238C131.957 39.5466 130.773 31.4954 132.648 31.721C133.677 31.9184 132.507 37.7277 132.902 38.6865C134.185 40.5196 133.734 35.8665 135.256 34.3578C137.033 33.4977 135.172 47.0479 134.974 47.3299C135.694 47.8939 138.852 30.8891 134.706 33.5682C133.494 34.3578 134.706 33.2298 133.818 31.3544C133.325 30.3815 131.915 30.2264 131.125 31.6082C130.378 26.6732 127.91 27.8717 127.53 31.3403C127.163 37.8828 127.318 36.8958 127.205 38.0661C123.469 36.6561 120.677 39.9696 126.162 41.8732C127.022 42.1693 126.162 45.2995 126.43 47.0902C126.43 47.3863 126.585 47.2876 125.852 47.2171C122.834 46.9069 113.81 72.7243 111.032 76.4327C114.882 82.0728 113.599 82.9047 113.246 81.9741C109.425 74.078 93.5058 57.5385 75.8101 51.56C74.4 51.1088 74.7384 51.56 74.4 49.727C73.3707 48.2182 88.4156 55.9592 87.0902 33.258C93.4494 33.4695 92.5188 23.5147 87.203 23.2327C90.7139 18.9322 89.6141 15.393 86.075 11.6283C84.5099 0.348145 72.3837 0.0943433 61.5971 4.2116C59.0449 5.18451 58.5937 6.70733 57.2824 8.96335C56.0134 9.16076 55.4353 8.24424 52.9819 9.65426C45.5229 13.9548 47.3418 26.1092 53.5177 31.016C52.4038 34.245 53.3767 37.8264 57.5785 37.5303C57.5785 51.0383 58.8052 47.908 52.3756 49.022C6.54998 56.9604 -6.25298 112.515 13.6142 130.958C14.714 131.987 9.89173 138.882 18.4928 143.775C18.7684 150.039 20.2627 156.188 22.8921 161.88C24.852 166.11 24.9225 165.193 24.7251 165.814C16.3496 192.463 0.388208 240.037 0.134405 241.165C-0.782107 245.24 3.22234 246.424 5.06947 243.294C5.88728 241.884 28.4617 180.83 31.3663 172.878C32.681 173.923 34.0507 174.898 35.4694 175.797C34.8631 186.64 31.3945 233.607 32.0149 236.315C32.1308 236.973 32.4632 237.575 32.9595 238.023C33.4559 238.471 34.0876 238.741 34.7547 238.79C35.4218 238.838 36.086 238.663 36.642 238.291C37.1981 237.919 37.6141 237.373 37.8242 236.738C38.0357 236.033 42.5477 204.998 45.2832 180.718C61.4984 187.331 79.8709 188.134 83.1844 188.177C86.0045 244.45 85.5815 241.066 91.5318 239.346C92.5752 239.036 92.6034 239.346 92.7726 232.677C95.5926 235.102 108.001 244.845 111.766 245.578C112.894 245.79 113.937 243.534 112.456 240.925C103.855 225.796 102.911 232.775 110.821 222.778C111.709 224.936 115.15 233.706 116.461 233.918C119.774 234.284 118.505 241.489 120.536 241.56C124.145 241.701 142.856 240.404 144.323 238.331C144.943 237.471 143.604 235.624 141.883 234.848C123.215 228.038 130.815 240.728 129.391 200.754C129.391 199.739 137.442 190.419 141.277 178.574C143.406 171.99 141.277 169.141 142.335 165.884C144.661 158.2 140.544 159.807 149.018 159.37C150.823 162.867 152.163 160.78 153.15 165.01C154.15 169.539 156.241 173.754 159.241 177.291C159.79 170.836 161.213 164.484 163.471 158.411C164.881 158.284 163.288 156.917 160.073 178.151C160.2 178.292 159.664 216.842 161.342 217.632C162.661 218.055 164.032 218.292 165.417 218.337C165.078 218.605 165.304 227.897 165.149 227.897C165.149 228.249 153.728 231.958 152.459 237.696C152.289 238.951 152.261 239.473 153.573 239.473C157.929 239.233 172.58 235.581 173.538 235.581C173.538 237.146 173.299 237.273 174.779 237.259C176.034 237.259 177.599 237.259 178.008 236.681C178.389 235.736 177.515 220.607 177.74 218.844C177.74 218.703 177.501 218.844 180.941 218.844C181.082 238.965 181.237 237.062 182.647 237.471C188.668 238.5 187.568 239.826 189.697 204.547C195.14 209.482 192.715 209.538 199.567 205.139C200.498 206.309 205.207 211.879 205.207 211.921C202.951 216.321 199.032 224.781 202.472 228.461C203.445 229.293 204.587 227.77 214.274 214.981C218.081 209.933 216.093 214.727 218.363 212.781C222.466 209.27 221.183 211.371 209.903 198.258C216.516 193.478 215.797 194.832 210.565 189.897C182.055 162.923 192.348 181.592 228.459 169.649C229.333 178.729 235.96 235.031 237.299 236.004C238.216 236.667 241.247 236.286 242.192 235.863C243.814 235.13 241.797 214.939 238.836 178.363C250.751 210.906 262.652 242.039 262.652 242.18C264.231 245.522 268.165 244.859 267.953 241.546C267.911 241.602 246.577 176.05 242.531 162.994ZM217.573 212.034C216.911 211.343 216.755 210.821 216.163 211.019C215.049 211.583 204.488 226.529 202.965 227.488C199.835 222.863 206.307 212.372 205.983 211.724C205.785 211.456 209.959 210.314 214.669 204.913C220.055 211.146 219.97 210.06 217.559 212.034H217.573ZM214.09 204.166C211.768 207.09 208.894 209.529 205.63 211.343C201.4 206.662 200.822 205.971 199.99 204.956C211.595 197.61 207.957 196.975 214.076 204.166H214.09ZM251.992 140.476C251.752 151.319 247.677 158.242 242.291 162.232C237.229 145.918 238.583 150.868 239.302 145.524C253.402 141.731 252.006 138.911 251.978 140.476H251.992ZM254.149 118.705C251.202 115.42 246.662 114.475 242.446 113.502C245.957 111.711 250.088 109.484 251.132 106.692C252.542 102.067 250.384 90.9418 249.51 88.2346C245.886 76.8839 243.518 80.4935 248.1 79.0412C257.378 85.3017 255.108 104.52 254.135 118.705H254.149ZM199.003 118.931C190.797 119.875 195.239 121.835 193.363 122.935C192.038 123.696 191.587 125.29 193.73 125.755C195.309 126.108 195.14 125.755 194.407 126.22C192.827 127.165 192.419 129.449 198.326 128.857C197.65 130.154 194.252 136.683 193.321 137.839C192.983 138.262 169.872 136.824 154.616 135.019C154.743 134.878 169.576 116.195 173.172 112.994C173.51 112.839 198.552 115.814 198.693 115.814C198.414 116.855 198.519 117.961 198.989 118.931H199.003ZM194.675 127.8C193.617 126.39 200.724 126.714 199.116 125.177C198.975 125.092 185.411 124.43 199.68 122.85C199.81 122.821 199.925 122.745 200.003 122.638C200.082 122.53 200.118 122.397 200.106 122.264C200.094 122.132 200.034 122.008 199.938 121.916C199.841 121.824 199.715 121.77 199.581 121.765C197.043 121.835 195.464 122.301 194.957 121.765C194.125 120.143 198.905 120.157 199.708 119.861C201.118 119.481 198.566 117.041 199.92 115.631C200.625 114.997 202.669 119.043 202.965 119.311C207.069 122.033 223.298 97.0471 233.21 96.1165C235.664 95.8768 228.98 95.5807 226.245 98.2175C220.605 82.2561 220.746 82.8201 220.788 82.1997C220.971 79.7462 223.735 78.7028 226.118 79.0976C228.501 79.4924 229.008 81.0434 231.575 81.0576C232.887 81.0643 234.188 80.8069 235.399 80.3007C236.61 79.7944 237.707 79.0496 238.625 78.1106C240.439 78.8668 242.372 79.301 244.335 79.3937C247.522 86.2182 248.636 86.8809 249.849 94.6501C250.483 98.6969 251.78 105.55 248.932 108.186C242.939 113.742 202.782 130.577 194.66 127.8H194.675ZM202.19 116.195C205.01 116.562 204.587 116.195 204.037 117.422C203.29 118.987 203.811 118.494 202.176 116.195H202.19ZM172.03 42.0988C164.655 39.8145 172.368 31.157 172.03 33.9066C172.03 34.0476 171.621 34.1745 171.508 34.245C170.098 35.0487 168.321 41.2951 174.582 41.5489C177.966 41.704 174.215 42.7897 172.03 42.0988ZM172.368 33.6387C170.253 27.9986 170.168 28.8869 169.703 26.3066C172.523 25.9823 175.569 26.2079 173.736 25.1504C172.735 24.5722 171.748 25.2491 172.199 24.8684C176.429 20.8498 174.92 16.8172 175.766 19.0027C176.173 19.969 176.818 20.8168 177.64 21.4671C178.463 22.1175 179.436 22.5492 180.471 22.7223C181.505 22.8954 182.566 22.8041 183.555 22.457C184.545 22.1099 185.43 21.5182 186.13 20.737C187.314 23.8813 188.64 25.517 192.376 25.8836C194.872 26.1233 194.477 25.8131 195.422 24.8684C199.046 21.2446 202.472 28.3934 198.073 30.5084C196.465 31.0724 198.764 38.3199 203.064 36.4728C206.279 35.0628 205.405 28.3934 201.823 28.1255C200.498 28.0268 201.175 27.6884 201.386 27.6602C206.039 26.9975 208.013 35.0346 203.896 37.3188C200.117 39.4197 195.591 35.0346 197.283 30.6494C194.252 31.0583 194.266 35.0205 195.873 37.629C196.07 37.9392 189.542 38.193 190.148 42.9589C190.557 45.0175 192.968 45.4828 195.041 45.4405C190.628 55.7336 196.254 57.1719 201.132 52.2791C201.535 53.5787 202.114 54.817 202.853 55.9592C205.151 58.878 180.476 66.1678 181.195 54.803C182.586 54.0201 183.906 53.1191 185.143 52.1099C185.327 50.7032 185.294 49.2764 185.044 47.8798C184.41 44.1997 178.276 49.4027 172.312 33.6105L172.368 33.6387ZM189.838 82.101C187.018 79.9295 182.788 63.6579 181.97 59.7522C192.729 66.0973 202.43 57.7641 201.88 58.9626C200.23 62.4312 191.502 79.6334 189.782 82.0728L189.838 82.101ZM190.924 91.7032C185.777 92.2813 184.452 85.3581 188.4 83.6661C196.099 80.8179 198.355 90.8431 190.924 91.7032ZM178.572 56.072C178.572 56.072 179.841 55.4234 180.701 54.944C180.56 58.1448 182.069 58.7229 178.572 56.0438V56.072ZM153.981 84.1032C152.064 81.1986 154.574 82.9329 160.848 75.8969C165.741 70.426 170.859 58.6806 177.078 56.1566C177.43 56.4669 179.319 57.9474 181.124 59.2023C182.182 66.0409 185.777 78.9425 188.428 82.2702C188.555 82.4253 182.154 84.4839 186.525 91.1815C194.195 97.3292 200.484 84.1314 191.883 82.3689C189.866 81.9741 190.98 84.7095 200.653 63.1644C203.473 56.8194 201.993 58.9344 204.361 57.1578C206.406 58.2717 212.088 58.6524 212.088 52.5611C216.882 56.5233 222.903 55.0145 221.324 50.7845C235.706 54.6902 237.44 63.249 244.025 69.2839C248.255 73.2038 251.667 72.7808 251.329 75.2906C251.329 76.5173 247.24 79.6757 240.895 77.8991C238.724 77.2928 238.484 76.8416 238.075 77.3492C237.131 78.3711 235.956 79.1526 234.649 79.6284C233.342 80.1042 231.94 80.2607 230.559 80.0846C229.361 79.7744 228.684 79.0553 226.992 78.449C224.694 77.7863 221.352 78.449 220.323 80.8461C216.995 67.4509 217.912 65.6743 217.15 64.9129C214.189 67.9303 224.045 94.8334 225.385 98.9225C222.988 100.333 216.784 106.494 214.824 108.454C214.33 108.948 204.079 106.607 170.027 106.438C172.96 100.586 177.853 96.8639 178.107 96.1589C178.191 95.6935 172.368 89.842 173.44 83.3841C175.061 73.514 179.291 68.0713 177.501 69.6928C174.117 74.9663 171.48 80.8743 172.791 87.1065C172.187 87.5408 171.488 87.8248 170.753 87.9352C170.017 88.0455 169.266 87.979 168.561 87.741C165.741 86.6835 165.064 82.3971 157.563 85.485C156.897 85.6682 156.189 85.6328 155.545 85.3841C154.9 85.1354 154.352 84.6864 153.981 84.1032ZM158.056 86.2746C160.623 85.8375 162.597 84.8646 164.303 85.9221C165.713 86.7963 168.392 90.829 172.904 88.2909C174.145 90.1099 173.708 92.8594 176.838 96.0178C163.654 109.046 171.663 112.769 149.286 112.445C149.624 108.99 150.4 100.727 150.781 96.2857C157.69 95.4679 153.22 100.079 158.056 86.2746ZM151.147 75.1214C151.147 81.5793 148.2 112.952 147.481 119.368C140.812 121.596 97.0167 133.905 81.8308 136.288C82.141 127.165 84.8201 100.262 87.2735 91.4635C94.8312 87.741 143.829 76.193 151.147 75.1214ZM51.036 122.089C55.2661 119.269 76.501 114.63 83.0011 113.135C83.0011 113.474 82.7614 115.194 82.7191 115.532C48.6954 122.484 55.5058 124.021 51.0783 122.089H51.036ZM89.1065 58.7652C81.0694 77.4479 80.6464 71.9347 87.8516 74.1767C88.5989 74.4164 77.5021 97.865 77.4598 98.6405C75.7537 132.34 76.4164 91.4212 79.744 57.75C80.2093 53.111 78.3481 52.2227 89.1206 58.7652H89.1065ZM79.9696 107.58C79.9696 107.73 79.9102 107.873 79.8044 107.979C79.6986 108.085 79.5552 108.144 79.4056 108.144C79.256 108.144 79.1126 108.085 79.0068 107.979C78.901 107.873 78.8416 107.73 78.8416 107.58C78.8275 104.393 79.9696 102.73 79.9696 107.58ZM74.7384 51.7151C81.1822 53.9288 79.6594 52.0112 78.6583 62.3325C78.6583 62.0364 77.347 61.2609 74.3295 58.1871C75.6832 56.9604 75.091 53.5058 74.7384 51.7151ZM74.9076 66.0409C75.8665 65.8012 76.0075 63.2208 76.0921 61.4442C79.2787 64.4053 78.6019 62.2056 77.8969 70.5106C76.0075 65.5615 76.0216 65.8576 75.7678 65.7448C75.4153 66.4498 73.5399 67.324 72.567 66.5485C72.4683 67.5496 73.0041 79.0976 73.0887 82.3548C50.0349 41.9014 65.1785 72.1321 69.6201 63.954C73.7232 66.5203 72.2709 66.7036 74.9358 66.0409H74.9076ZM87.2453 24.0223C91.4754 23.9377 92.124 31.9748 87.4286 32.1581C82.7332 32.3414 82.6204 24.1069 87.2453 24.0223ZM83.1985 18.5374C83.537 19.6513 84.1574 21.9214 84.6086 23.9941C82.3666 25.8695 83.7626 27.3782 82.0987 27.632C81.7885 26.8424 81.7885 26.3912 81.3655 26.8424C81.3655 28.0127 81.7462 27.6884 80.167 27.9845C77.5021 28.4639 79.4902 28.1819 77.8687 26.3207C77.2945 25.599 76.5331 25.0489 75.6676 24.7305C74.802 24.412 73.8657 24.3375 72.9607 24.515C72.0557 24.6925 71.2168 25.1152 70.5357 25.737C69.8546 26.3588 69.3574 27.1558 69.0984 28.0409C67.8717 28.0409 64.0787 27.8999 63.4583 27.8012C62.6123 25.3055 61.0895 16.4082 61.0754 16.2954C71.6364 22.8379 80.5054 20.8216 83.1985 18.5374ZM78.1225 31.2275C77.2483 33.8502 71.6505 34.7949 70.2405 30.593C67.9986 24.0223 80.8156 23.0212 78.0943 31.2275H78.1225ZM55.2661 36.4587C53.4331 35.514 52.9678 29.8316 56.1826 29.4086C58.2694 29.1548 59.3834 31.4672 60.2153 31.8479C62.3585 32.8068 63.6839 31.4672 63.6839 29.0984H68.9292C68.6331 36.4305 80.2093 36.1485 78.9826 29.2253C82.5076 29.0702 80.9143 26.8142 82.6345 34.4424C81.5065 34.9923 79.5889 35.2461 79.5043 35.5563C79.8991 36.1767 83.7344 35.8242 83.7344 34.3296C83.2972 31.7774 82.9729 30.2405 82.7473 29.3945C83.0008 30.1834 83.4147 30.9114 83.9631 31.5326C84.5116 32.1538 85.1826 32.6548 85.934 33.0042C86.0186 34.0899 86.0327 34.9077 86.0609 36.3459C86.498 53.5763 73.3707 47.0338 73.2015 49.0361C73.2015 49.7411 74.8794 56.0861 73.695 57.2001C70.1982 56.354 58.918 49.1771 58.5655 48.2464C58.5514 32.0453 58.5232 38.1225 55.2661 36.4587ZM71.3685 57.609C70.3336 60.1628 69.1032 62.6329 67.6884 64.9975C58.3117 58.7229 57.2401 55.0427 54.0253 49.4027C61.5971 48.1054 54.0112 49.5296 71.3685 57.6231V57.609ZM53.0383 49.8257C79.3774 94.9462 76.6843 87.0642 76.1767 94.3822C72.708 92.239 54.0253 80.4795 51.727 78.6182C52.2769 76.9826 57.8041 71.9347 58.1143 71.0041C58.4245 70.0735 41.3492 53.0969 41.4056 53.0828C45.1672 51.6958 49.0336 50.6114 52.9678 49.8398L53.0383 49.8257ZM32.6917 113.276C34.99 113.826 34.4542 114.207 34.9477 113.403C41.0531 103.533 43.8309 85.0338 44.0988 84.8082C44.9166 85.8093 42.8297 102.518 35.8361 113.009C34.5106 114.997 34.4965 113.009 38.3459 117.535C49.3581 114.842 68.4075 112.853 83.2831 111.288C83.2831 111.655 83.1703 112.247 83.1281 112.698C73.4694 114.63 43.5206 119.466 49.7247 125.501C51.6706 127.151 80.3221 138.191 81.718 136.781C96.2553 134.92 144.605 121.821 148.158 120.341C148.539 120.087 148.496 120.679 149.201 113.446C157.549 113.728 160.482 114.856 165.713 111.035C167.231 109.937 168.596 108.642 169.774 107.185C183.662 107.354 200.131 107.904 213.978 109.469C200.075 123.696 208.056 116.04 204.39 115.547C198.228 114.701 172.932 112.374 173.087 112.614C172.692 112.064 154.419 133.101 153.347 135.047C152.275 136.993 193.081 139.7 193.955 138.784C194.83 137.867 198.848 130.154 199.596 128.787C206.758 127.856 216.516 126.502 241.121 114.249C262.412 119.579 255.686 129.492 245.351 133.369C241.741 134.779 207.097 144.79 160.411 148.273C75.0486 154.632 23.7945 136.993 26.5581 136.993C27.249 136.993 27.5592 136.091 28.7578 133.863C34.7926 139.178 50.1054 143.86 46.3125 138.953C47.0978 139.069 47.896 139.069 48.6813 138.953C50.1759 138.614 50.2746 137.19 49.0761 136.133C48.4698 135.611 48.3852 135.78 48.921 135.738C51.2616 135.569 51.4026 133.75 49.5837 132.721C47.1303 131.311 42.8156 131.466 41.5748 129.21C40.6724 127.574 43.8873 125.924 42.7733 124.134C41.9978 122.893 40.757 123.4 39.5444 124.218C37.091 125.924 37.9793 126.065 36.2168 124.444C39.4316 122.202 40.4468 123.302 39.9251 121.708C39.3219 119.947 38.3095 118.354 36.9713 117.06C35.633 115.766 34.0069 114.807 32.2264 114.263C20.5092 111.866 16.3637 119.904 15.9971 119.904C15.2075 117.774 22.3422 110.851 32.6212 113.248L32.6917 113.276ZM41.321 130.422C42.9989 132.523 49.908 132.918 49.7811 134.441C49.1889 136.048 41.3915 132.128 41.744 134.201C41.9696 134.822 42.4208 134.497 45.1845 135.456C50.613 137.36 50.3169 139.334 42.1388 136.57C40.6301 136.062 40.4186 136.57 40.6583 137.12C40.898 137.67 45.96 138.755 45.678 139.94C45.3819 140.856 33.5377 137.402 29.0398 133.412C30.6842 130.08 33.0148 127.135 35.8784 124.768C37.0205 125.882 37.4999 126.39 37.7819 126.291C38.0639 126.192 42.1247 122.639 42.2798 124.881C42.308 126.404 39.0509 127.659 41.2505 130.394L41.321 130.422ZM19.0991 144.099C31.5214 150.966 31.9585 142.986 25.1481 164.7C21.5246 158.396 19.4287 151.331 19.0286 144.071L19.0991 144.099ZM3.99785 242.899C3.49025 243.886 1.17782 244.634 1.77002 241.489C4.35036 228.151 22.1166 180.859 30.337 148.626C33.439 149.599 35.5259 150.177 38.642 150.98C36.3155 157.452 4.57596 242.011 3.99785 242.899ZM37.2461 233.664C36.6116 237.894 33.3544 238.134 33.016 233.579C32.6212 227.53 34.6234 211.696 35.9771 176.149C38.7491 177.825 41.6431 179.291 44.6346 180.534C44.0847 184.835 39.1073 221.298 37.2461 233.664ZM91.3625 238.232C86.5121 240.093 87.4991 241.898 83.96 188.177C84.6227 188.177 88.6553 188.247 92.2368 187.937C91.8279 213.726 91.9125 234.679 91.3625 238.232ZM31.6483 172.145C37.8383 155.224 31.2112 165.25 48.6954 173.724C64.2056 181.239 78.193 182.184 95.4657 181.944C96.2835 184.257 96.8757 185.991 97.0026 186.174C80.449 189.22 47.3841 184.764 31.6483 172.145ZM92.8431 229.744C93.675 180.971 90.7562 188.416 97.3833 187.274C100.02 194.564 101.317 198.019 102.234 200.486C93.1251 225.147 93.4353 223.921 94.3377 224.456C95.6208 225.302 95.3247 224.118 92.8431 229.744ZM110.299 221.707C108.532 224.028 106.65 226.258 104.659 228.39C101.382 227.066 98.21 225.497 95.1696 223.695C95.0427 223.61 101.204 205.266 102.502 201.135C109.509 220.015 110.454 221.509 110.299 221.707ZM127.812 230.308C127.106 230.519 119.521 232.338 116.686 232.804C81.577 160.456 113.542 186.767 70.9032 179.843C61.0331 178.222 47.511 174.091 39.8123 166.801C33.8902 161.161 34.99 163.276 39.1919 151.15C41.4479 151.601 72.3555 160.019 122.214 160.019C129.419 178.504 128.841 224.245 127.812 230.308ZM129.222 198.611C128.531 188.247 127.91 172.568 123.314 160.004C139.458 160.089 137.541 159.44 138.203 160.272C146.79 171.031 137.019 187.584 129.236 198.611H129.222ZM141.277 165.236C139.289 158.453 135.863 160.089 142.18 159.751C142.022 161.599 141.725 163.432 141.291 165.236H141.277ZM152.402 161.457C148.877 158.905 150.753 159.384 152.261 159.299C152.374 161.555 152.571 161.57 152.416 161.457H152.402ZM176.88 236.188C173.961 236.188 174.525 236.865 174.455 235.215C174.356 233.17 158.423 238.5 153.305 238.5C153.784 234.27 161.765 230.491 165.656 228.785C165.656 228.785 166.545 228.785 169.548 229.109C179.277 230.139 176.894 225.824 176.894 236.188H176.88ZM165.6 218.492C172.227 219.056 177.148 218.788 177.134 218.929C176.894 220.692 177.134 228.024 176.852 228.08C173.219 228.767 169.487 228.734 165.868 227.981C165.656 217.97 165.769 219.084 165.6 218.492ZM17.816 142.041C15.56 140.631 13.7129 139.376 14.7845 132.312C33.4249 148.104 143.096 162.951 242.46 135.287C253.74 132.143 255.404 126.361 255.39 126.827C255.023 139.672 251.273 141.646 239.964 144.678C145.691 169.903 40.3058 156.733 17.816 142.041ZM182.379 236.343C182.013 233.988 181.9 221.65 181.872 218.887C184.833 218.802 183.944 221.256 185.509 201.121C185.608 201.205 186.919 177.63 187.78 171.228C187.892 170.34 188.259 170.128 188.231 171.228C188.231 171.933 188.231 172.864 188.16 174.048C186.99 206.803 185.34 200.839 188.583 203.659C186.13 238.091 187.258 238.204 182.379 236.343ZM192.87 173.385C192.531 173.385 193.109 173.823 188.442 169.564C191.474 169.155 218.053 169 231.547 158.496C232.689 161.696 232.421 160.949 234.465 166.575C222.438 171.637 205.546 173.978 192.87 173.385ZM237.892 235.144C237.68 234.89 230.263 181.691 228.882 169.578C236.411 167.181 233.929 165.123 237.821 175.783C241.501 232.268 243.941 238.176 237.892 235.144ZM263.935 242.307C263.582 241.687 230.771 154.886 228.543 148.259C231.363 147.582 234.959 146.68 237.102 146.116C244.97 178.546 264.442 229.688 266.219 241.518C266.656 244.394 264.978 244.239 263.935 242.307Z" fill="black"/>
</svg>
