<svg width="60" height="60" viewBox="0 0 60 60" fill="none" xmlns="http://www.w3.org/2000/svg">
<rect width="60" height="60" rx="30" fill="#FFB949" fill-opacity="0.5"/>
<path d="M30.3611 47.7108C39.9429 47.7108 47.7105 39.9432 47.7105 30.3614C47.7105 20.7796 39.9429 13.012 30.3611 13.012C20.7793 13.012 13.0117 20.7796 13.0117 30.3614C13.0117 39.9432 20.7793 47.7108 30.3611 47.7108Z" stroke="black"/>
<path d="M31.0835 37.4747H14.5293" stroke="black"/>
<path d="M14.5371 37.4747L23.9058 24.7662L32.2407 36.0867" stroke="black"/>
<path d="M44.2405 40.7711L36.2887 31.2289L28.3369 40.7711H44.2405" stroke="black"/>
<path d="M16.4814 40.7711H28.3369" stroke="black"/>
<path d="M36.2891 31.2289V40.7711" stroke="black"/>
<path d="M23.9053 24.7662V37.4747" stroke="black"/>
<path d="M36.2885 28.6265C38.684 28.6265 40.6259 26.6846 40.6259 24.2891C40.6259 21.8937 38.684 19.9518 36.2885 19.9518C33.8931 19.9518 31.9512 21.8937 31.9512 24.2891C31.9512 26.6846 33.8931 28.6265 36.2885 28.6265Z" stroke="black"/>
<path d="M25.3005 21.6867C26.4982 21.6867 27.4692 20.7158 27.4692 19.518C27.4692 18.3203 26.4982 17.3494 25.3005 17.3494C24.1028 17.3494 23.1318 18.3203 23.1318 19.518C23.1318 20.7158 24.1028 21.6867 25.3005 21.6867Z" stroke="black"/>
</svg>
