<svg width="60" height="60" viewBox="0 0 60 60" fill="none" xmlns="http://www.w3.org/2000/svg">
<rect width="60" height="60" rx="30" fill="#FFB949" fill-opacity="0.5"/>
<path d="M37.9655 32.9205L25.3005 45.6072C23.9473 46.9448 22.1213 47.695 20.2185 47.695C18.3158 47.695 16.4898 46.9448 15.1366 45.6072C13.799 44.254 13.0488 42.428 13.0488 40.5253C13.0488 38.6226 13.799 36.7966 15.1366 35.4434L17.6667 32.9205" stroke="black"/>
<path d="M20.1973 30.3614L35.4214 15.1156C36.7746 13.778 38.6006 13.0278 40.5033 13.0278C42.406 13.0278 44.232 13.778 45.5852 15.1156C46.9228 16.4688 47.673 18.2948 47.673 20.1976C47.673 22.1003 46.9228 23.9263 45.5852 25.2795L40.525 30.3397" stroke="black"/>
<path d="M32.9199 22.7566L45.6067 35.4217C46.9443 36.7749 47.6945 38.6009 47.6945 40.5036C47.6945 42.4063 46.9443 44.2323 45.6067 45.5855C44.2535 46.9232 42.4275 47.6733 40.5248 47.6733C38.622 47.6733 36.796 46.9232 35.4428 45.5855L15.1151 25.3012C13.7775 23.948 13.0273 22.122 13.0273 20.2193C13.0273 18.3165 13.7775 16.4905 15.1151 15.1373C16.4683 13.7997 18.2943 13.0495 20.1971 13.0495C22.0998 13.0495 23.9258 13.7997 25.279 15.1373L30.3392 20.1976" stroke="black"/>
</svg>
