<svg width="24" height="24" viewBox="0 0 24 24" fill="none" xmlns="http://www.w3.org/2000/svg">
<path fill-rule="evenodd" clip-rule="evenodd" d="M11.9994 2.88006C6.96262 2.88006 2.87945 6.96322 2.87945 12.0001C2.87945 17.0368 6.96262 21.12 11.9994 21.12C17.0363 21.12 21.1195 17.0368 21.1195 12.0001C21.1195 6.96322 17.0363 2.88006 11.9994 2.88006ZM1.43945 12.0001C1.43945 6.16793 6.16732 1.44006 11.9994 1.44006C17.8315 1.44006 22.5595 6.16793 22.5595 12.0001C22.5595 17.8322 17.8315 22.56 11.9994 22.56C6.16732 22.56 1.43945 17.8322 1.43945 12.0001Z" fill="black"/>
<path fill-rule="evenodd" clip-rule="evenodd" d="M21.6003 12.64H2.40039V11.36H21.6003V12.64Z" fill="black"/>
<path fill-rule="evenodd" clip-rule="evenodd" d="M11.3598 21.6V2.39998H12.6398V21.6H11.3598ZM16.5999 12C16.5999 8.52357 15.3497 5.08443 12.8988 2.81048L13.6606 1.98944C16.3833 4.51547 17.7199 8.27635 17.7199 12C17.7199 15.7236 16.3833 19.4845 13.6606 22.0105L12.8988 21.1894C15.3497 18.9155 16.5999 15.4764 16.5999 12ZM6.39941 12C6.39941 8.28176 7.69249 4.52283 10.3322 1.99549L11.1067 2.80448C8.73303 5.07715 7.51941 8.51821 7.51941 12C7.51943 15.4818 8.73306 18.9229 11.1068 21.1955L10.3322 22.0045C7.69252 19.4771 6.39943 15.7182 6.39941 12Z" fill="black"/>
<path fill-rule="evenodd" clip-rule="evenodd" d="M11.9994 6.33282C15.4704 6.33282 19 6.97465 21.3925 8.31118C21.6626 8.46201 21.7592 8.80316 21.6083 9.07318C21.4576 9.34318 21.1163 9.4398 20.8464 9.28897C18.6866 8.08249 15.3723 7.45282 11.9994 7.45282C8.62658 7.45282 5.31234 8.08249 3.15254 9.28897C2.88252 9.4398 2.54137 9.34318 2.39054 9.07318C2.23972 8.80316 2.33633 8.46201 2.60634 8.31118C4.99897 6.97465 8.52852 6.33282 11.9994 6.33282ZM11.9994 17.36C15.4704 17.36 19 16.7181 21.3925 15.3816C21.6626 15.2308 21.7592 14.8896 21.6083 14.6196C21.4576 14.3496 21.1163 14.253 20.8464 14.4038C18.6866 15.6103 15.3723 16.24 11.9994 16.24C8.62658 16.24 5.31234 15.6103 3.15254 14.4038C2.88252 14.253 2.54137 14.3496 2.39054 14.6196C2.23972 14.8896 2.33633 15.2308 2.60634 15.3816C4.99897 16.7181 8.52852 17.36 11.9994 17.36Z" fill="black"/>
</svg>
